<svg xmlns="http://www.w3.org/2000/svg" xmlns:xlink="http://www.w3.org/1999/xlink" width="997" zoomAndPan="magnify" viewBox="0 0 747.75 322.499991" height="430" preserveAspectRatio="xMidYMid meet" version="1.2"><defs><clipPath id="4933f06087"><path d="M 628 0 L 720.601562 0 L 720.601562 185.710938 L 628 185.710938 Z M 628 0 "/></clipPath></defs><g id="fe98b26324"><g style="fill:#fff7e1;fill-opacity:1;"><g transform="translate(85.106408, 225.525612)"><path style="stroke:none" d="M -1.296875 -115.28125 C -1.296875 -115.96875 -1.078125 -116.394531 -0.640625 -116.5625 C -0.210938 -116.738281 0.0390625 -116.867188 0.125 -116.953125 C 1.15625 -117.390625 2.8125 -118.144531 5.09375 -119.21875 C 7.375 -120.289062 10 -121.492188 12.96875 -122.828125 C 15.9375 -124.160156 18.925781 -125.453125 21.9375 -126.703125 C 24.957031 -127.953125 27.753906 -128.984375 30.328125 -129.796875 C 32.910156 -130.617188 34.976562 -131.03125 36.53125 -131.03125 C 38.425781 -131.03125 39.546875 -130.515625 39.890625 -129.484375 C 40.234375 -128.453125 40.40625 -127.289062 40.40625 -126 L 40.40625 -83.390625 C 40.664062 -82.785156 40.96875 -82.421875 41.3125 -82.296875 C 41.65625 -82.171875 42.039062 -82.109375 42.46875 -82.109375 C 43.15625 -82.109375 43.992188 -82.625 44.984375 -83.65625 C 45.972656 -84.6875 47.285156 -85.867188 48.921875 -87.203125 C 50.554688 -88.535156 52.597656 -89.71875 55.046875 -90.75 C 57.503906 -91.78125 60.539062 -92.296875 64.15625 -92.296875 C 70.53125 -92.296875 76.019531 -90.851562 80.625 -87.96875 C 85.226562 -85.09375 89.015625 -81.285156 91.984375 -76.546875 C 94.953125 -71.816406 97.144531 -66.566406 98.5625 -60.796875 C 99.976562 -55.035156 100.6875 -49.226562 100.6875 -43.375 C 100.6875 -35.03125 99.265625 -27.4375 96.421875 -20.59375 C 93.585938 -13.75 89.4375 -8.28125 83.96875 -4.1875 C 78.507812 -0.101562 71.90625 1.9375 64.15625 1.9375 C 60.800781 1.9375 57.269531 1.097656 53.5625 -0.578125 C 49.863281 -2.253906 46.253906 -5.847656 42.734375 -11.359375 C 42.296875 -12.046875 41.796875 -12.539062 41.234375 -12.84375 C 40.679688 -13.144531 40.40625 -12.820312 40.40625 -11.875 L 40.40625 -10.578125 C 40.40625 -7.316406 39.910156 -4.738281 38.921875 -2.84375 C 37.929688 -0.945312 36.0625 0 33.3125 0 L 1.671875 0 C 3.398438 -1.71875 4.585938 -3.757812 5.234375 -6.125 C 5.878906 -8.5 6.203125 -11.535156 6.203125 -15.234375 L 6.203125 -103.53125 C 6.203125 -104.050781 6.15625 -104.976562 6.0625 -106.3125 C 5.976562 -107.644531 5.570312 -109 4.84375 -110.375 C 4.113281 -111.75 2.710938 -112.78125 0.640625 -113.46875 C 0.472656 -113.5625 0.109375 -113.691406 -0.453125 -113.859375 C -1.015625 -114.035156 -1.296875 -114.507812 -1.296875 -115.28125 Z M 40.40625 -34.59375 C 40.40625 -32.789062 40.507812 -30.75 40.71875 -28.46875 C 40.9375 -26.1875 41.429688 -23.945312 42.203125 -21.75 C 42.984375 -19.550781 44.125 -17.742188 45.625 -16.328125 C 47.132812 -14.910156 49.179688 -14.203125 51.765625 -14.203125 C 55.378906 -14.203125 58.195312 -15.191406 60.21875 -17.171875 C 62.238281 -19.148438 63.703125 -21.753906 64.609375 -24.984375 C 65.515625 -28.210938 66.070312 -31.757812 66.28125 -35.625 C 66.5 -39.5 66.609375 -43.285156 66.609375 -46.984375 C 66.609375 -50.515625 66.394531 -54.128906 65.96875 -57.828125 C 65.539062 -61.535156 64.722656 -64.976562 63.515625 -68.15625 C 62.304688 -71.34375 60.601562 -73.90625 58.40625 -75.84375 C 56.21875 -77.78125 53.316406 -78.75 49.703125 -78.75 C 47.722656 -78.75 46.109375 -78.082031 44.859375 -76.75 C 43.609375 -75.414062 42.660156 -73.734375 42.015625 -71.703125 C 41.367188 -69.679688 40.9375 -67.59375 40.71875 -65.4375 C 40.507812 -63.289062 40.40625 -61.398438 40.40625 -59.765625 Z M 40.40625 -34.59375 "/></g></g><g style="fill:#fff7e1;fill-opacity:1;"><g transform="translate(189.01668, 225.525612)"><path style="stroke:none" d="M 0.640625 -90.359375 L 43.890625 -90.359375 C 42.171875 -88.640625 40.988281 -86.597656 40.34375 -84.234375 C 39.695312 -81.867188 39.375 -78.832031 39.375 -75.125 L 39.375 -33.171875 C 39.375 -30.242188 39.890625 -27.597656 40.921875 -25.234375 C 41.953125 -22.867188 43.890625 -21.6875 46.734375 -21.6875 C 48.710938 -21.6875 50.5625 -22.222656 52.28125 -23.296875 C 54 -24.378906 55.394531 -26.253906 56.46875 -28.921875 C 57.550781 -31.585938 58.09375 -35.285156 58.09375 -40.015625 L 58.09375 -75.125 C 58.09375 -78.832031 57.769531 -81.867188 57.125 -84.234375 C 56.476562 -86.597656 55.296875 -88.640625 53.578125 -90.359375 L 96.8125 -90.359375 C 95.09375 -88.640625 93.910156 -86.597656 93.265625 -84.234375 C 92.617188 -81.867188 92.296875 -78.832031 92.296875 -75.125 L 92.296875 -15.234375 C 92.296875 -11.535156 92.617188 -8.5 93.265625 -6.125 C 93.910156 -3.757812 95.09375 -1.71875 96.8125 0 L 65.1875 0 C 62.4375 0 60.566406 -0.96875 59.578125 -2.90625 C 58.585938 -4.84375 58.09375 -7.445312 58.09375 -10.71875 L 58.09375 -12.90625 C 58.09375 -14.457031 58.003906 -15.359375 57.828125 -15.609375 C 57.660156 -15.867188 57.445312 -16 57.1875 -16 C 56.15625 -16 55.144531 -15.394531 54.15625 -14.1875 C 53.164062 -12.988281 52.003906 -11.503906 50.671875 -9.734375 C 49.335938 -7.972656 47.703125 -6.1875 45.765625 -4.375 C 43.828125 -2.570312 41.375 -1.070312 38.40625 0.125 C 35.4375 1.332031 31.757812 1.9375 27.375 1.9375 C 22.632812 1.9375 18.820312 1.015625 15.9375 -0.828125 C 13.0625 -2.679688 10.847656 -5.132812 9.296875 -8.1875 C 7.742188 -11.25 6.6875 -14.539062 6.125 -18.0625 C 5.570312 -21.59375 5.296875 -25.039062 5.296875 -28.40625 L 5.15625 -53.0625 L 5.15625 -75.125 C 5.15625 -78.832031 4.832031 -81.867188 4.1875 -84.234375 C 3.550781 -86.597656 2.367188 -88.640625 0.640625 -90.359375 Z M 0.640625 -90.359375 "/></g></g><g style="fill:#fff7e1;fill-opacity:1;"><g transform="translate(287.118308, 225.525612)"><path style="stroke:none" d="M 0 -76.546875 C 0 -77.234375 0.210938 -77.664062 0.640625 -77.84375 C 1.078125 -78.019531 1.335938 -78.148438 1.421875 -78.234375 C 2.453125 -78.742188 4.0625 -79.535156 6.25 -80.609375 C 8.445312 -81.691406 10.941406 -82.898438 13.734375 -84.234375 C 16.535156 -85.566406 19.398438 -86.832031 22.328125 -88.03125 C 25.253906 -89.238281 27.960938 -90.25 30.453125 -91.0625 C 32.953125 -91.882812 34.976562 -92.296875 36.53125 -92.296875 C 38.425781 -92.296875 39.546875 -91.78125 39.890625 -90.75 C 40.234375 -89.71875 40.40625 -88.554688 40.40625 -87.265625 L 40.40625 -15.234375 C 40.40625 -11.535156 40.726562 -8.5 41.375 -6.125 C 42.019531 -3.757812 43.203125 -1.71875 44.921875 0 L 1.671875 0 C 3.398438 -1.71875 4.585938 -3.757812 5.234375 -6.125 C 5.878906 -8.5 6.203125 -11.535156 6.203125 -15.234375 L 6.203125 -64.8125 C 6.203125 -65.320312 6.175781 -66.265625 6.125 -67.640625 C 6.082031 -69.015625 5.78125 -70.410156 5.21875 -71.828125 C 4.664062 -73.253906 3.570312 -74.226562 1.9375 -74.75 C 1.757812 -74.832031 1.390625 -74.957031 0.828125 -75.125 C 0.273438 -75.300781 0 -75.773438 0 -76.546875 Z M 22.984375 -136.703125 C 28.660156 -136.703125 33.21875 -134.976562 36.65625 -131.53125 C 40.101562 -128.09375 41.828125 -123.535156 41.828125 -117.859375 C 41.828125 -112.179688 40.101562 -107.617188 36.65625 -104.171875 C 33.21875 -100.734375 28.660156 -99.015625 22.984375 -99.015625 C 17.296875 -99.015625 12.726562 -100.734375 9.28125 -104.171875 C 5.84375 -107.617188 4.125 -112.179688 4.125 -117.859375 C 4.125 -123.535156 5.84375 -128.09375 9.28125 -131.53125 C 12.726562 -134.976562 17.296875 -136.703125 22.984375 -136.703125 Z M 22.984375 -136.703125 "/></g></g><g style="fill:#fff7e1;fill-opacity:1;"><g transform="translate(332.683929, 225.525612)"><path style="stroke:none" d="M 0.640625 -113.46875 C 0.472656 -113.5625 0.109375 -113.691406 -0.453125 -113.859375 C -1.015625 -114.035156 -1.296875 -114.507812 -1.296875 -115.28125 C -1.296875 -115.96875 -1.078125 -116.394531 -0.640625 -116.5625 C -0.210938 -116.738281 0.0390625 -116.867188 0.125 -116.953125 C 1.15625 -117.472656 2.8125 -118.269531 5.09375 -119.34375 C 7.375 -120.414062 9.976562 -121.617188 12.90625 -122.953125 C 15.832031 -124.296875 18.820312 -125.566406 21.875 -126.765625 C 24.9375 -127.972656 27.753906 -128.984375 30.328125 -129.796875 C 32.910156 -130.617188 34.976562 -131.03125 36.53125 -131.03125 C 38.425781 -131.03125 39.546875 -130.515625 39.890625 -129.484375 C 40.234375 -128.453125 40.40625 -127.289062 40.40625 -126 L 40.40625 -15.234375 C 40.40625 -11.535156 40.726562 -8.5 41.375 -6.125 C 42.019531 -3.757812 43.203125 -1.71875 44.921875 0 L 13.296875 0 C 10.546875 0 8.675781 -0.945312 7.6875 -2.84375 C 6.695312 -4.738281 6.203125 -7.316406 6.203125 -10.578125 L 6.203125 -103.53125 C 6.203125 -104.050781 6.175781 -105 6.125 -106.375 C 6.082031 -107.75 5.675781 -109.144531 4.90625 -110.5625 C 4.132812 -111.988281 2.710938 -112.957031 0.640625 -113.46875 Z M 0.640625 -113.46875 "/></g></g><g style="fill:#fff7e1;fill-opacity:1;"><g transform="translate(378.894958, 225.525612)"><path style="stroke:none" d="M 39.765625 1.9375 C 32.015625 1.9375 25.425781 -0.101562 20 -4.1875 C 14.582031 -8.28125 10.429688 -13.75 7.546875 -20.59375 C 4.671875 -27.4375 3.234375 -35.03125 3.234375 -43.375 C 3.234375 -49.226562 3.941406 -55.035156 5.359375 -60.796875 C 6.773438 -66.566406 8.96875 -71.816406 11.9375 -76.546875 C 14.90625 -81.285156 18.691406 -85.09375 23.296875 -87.96875 C 27.898438 -90.851562 33.390625 -92.296875 39.765625 -92.296875 C 43.378906 -92.296875 46.410156 -91.78125 48.859375 -90.75 C 51.316406 -89.71875 53.363281 -88.535156 55 -87.203125 C 56.632812 -85.867188 57.96875 -84.6875 59 -83.65625 C 60.03125 -82.625 60.847656 -82.109375 61.453125 -82.109375 C 61.703125 -82.109375 62.109375 -82.253906 62.671875 -82.546875 C 63.234375 -82.847656 63.515625 -83.816406 63.515625 -85.453125 L 63.515625 -103.53125 C 63.515625 -104.050781 63.46875 -104.976562 63.375 -106.3125 C 63.289062 -107.644531 62.882812 -109 62.15625 -110.375 C 61.425781 -111.75 60.03125 -112.78125 57.96875 -113.46875 C 57.789062 -113.5625 57.421875 -113.691406 56.859375 -113.859375 C 56.304688 -114.035156 56.03125 -114.507812 56.03125 -115.28125 C 56.03125 -115.96875 56.242188 -116.394531 56.671875 -116.5625 C 57.097656 -116.738281 57.359375 -116.867188 57.453125 -116.953125 C 58.484375 -117.390625 60.140625 -118.144531 62.421875 -119.21875 C 64.703125 -120.289062 67.328125 -121.492188 70.296875 -122.828125 C 73.265625 -124.160156 76.253906 -125.453125 79.265625 -126.703125 C 82.273438 -127.953125 85.070312 -128.984375 87.65625 -129.796875 C 90.238281 -130.617188 92.300781 -131.03125 93.84375 -131.03125 C 95.738281 -131.03125 96.859375 -130.515625 97.203125 -129.484375 C 97.546875 -128.453125 97.71875 -127.289062 97.71875 -126 L 97.71875 -15.234375 C 97.71875 -11.535156 98.039062 -8.5 98.6875 -6.125 C 99.332031 -3.757812 100.515625 -1.71875 102.234375 0 L 70.609375 0 C 67.859375 0 65.988281 -0.945312 65 -2.84375 C 64.007812 -4.738281 63.515625 -7.316406 63.515625 -10.578125 L 63.515625 -11.875 C 63.515625 -12.820312 63.234375 -13.144531 62.671875 -12.84375 C 62.109375 -12.539062 61.613281 -12.046875 61.1875 -11.359375 C 58.945312 -7.660156 56.597656 -4.863281 54.140625 -2.96875 C 51.691406 -1.070312 49.242188 0.21875 46.796875 0.90625 C 44.347656 1.59375 42.003906 1.9375 39.765625 1.9375 Z M 54.21875 -78.75 C 50.601562 -78.75 47.695312 -77.78125 45.5 -75.84375 C 43.3125 -73.90625 41.613281 -71.34375 40.40625 -68.15625 C 39.195312 -64.976562 38.378906 -61.535156 37.953125 -57.828125 C 37.523438 -54.128906 37.3125 -50.515625 37.3125 -46.984375 C 37.3125 -43.285156 37.414062 -39.5 37.625 -35.625 C 37.84375 -31.757812 38.40625 -28.210938 39.3125 -24.984375 C 40.21875 -21.753906 41.679688 -19.148438 43.703125 -17.171875 C 45.722656 -15.191406 48.539062 -14.203125 52.15625 -14.203125 C 54.738281 -14.203125 56.78125 -14.910156 58.28125 -16.328125 C 59.789062 -17.742188 60.929688 -19.550781 61.703125 -21.75 C 62.484375 -23.945312 62.976562 -26.1875 63.1875 -28.46875 C 63.40625 -30.75 63.515625 -32.789062 63.515625 -34.59375 L 63.515625 -59.765625 C 63.515625 -61.398438 63.40625 -63.289062 63.1875 -65.4375 C 62.976562 -67.59375 62.550781 -69.679688 61.90625 -71.703125 C 61.257812 -73.734375 60.3125 -75.414062 59.0625 -76.75 C 57.8125 -78.082031 56.195312 -78.75 54.21875 -78.75 Z M 54.21875 -78.75 "/></g></g><g style="fill:#ffde59;fill-opacity:1;"><g transform="translate(461.22303, 223.279095)"><path style="stroke:none" d="M 4.921875 -93.625 C 4.921875 -99.1875 6.3125 -104.015625 9.09375 -108.109375 C 11.875 -112.210938 15.597656 -115.632812 20.265625 -118.375 C 24.941406 -121.113281 30.101562 -123.160156 35.75 -124.515625 C 41.40625 -125.867188 47.054688 -126.546875 52.703125 -126.546875 C 59.253906 -126.546875 65.351562 -125.664062 71 -123.90625 C 76.65625 -122.144531 81.632812 -119.5625 85.9375 -116.15625 C 90.238281 -112.757812 93.597656 -108.582031 96.015625 -103.625 C 98.429688 -98.675781 99.640625 -92.96875 99.640625 -86.5 C 99.640625 -79.363281 98.429688 -73.296875 96.015625 -68.296875 C 93.597656 -63.304688 90.34375 -59.148438 86.25 -55.828125 C 82.15625 -52.515625 77.546875 -49.773438 72.421875 -47.609375 C 67.304688 -45.441406 62.023438 -43.597656 56.578125 -42.078125 C 51.128906 -40.566406 45.84375 -39.132812 40.71875 -37.78125 C 35.601562 -36.425781 31 -34.929688 26.90625 -33.296875 C 22.8125 -31.660156 19.554688 -29.59375 17.140625 -27.09375 C 14.722656 -24.59375 13.515625 -21.414062 13.515625 -17.5625 C 13.515625 -15.351562 14.085938 -13.390625 15.234375 -11.671875 C 16.378906 -9.953125 18.140625 -9.09375 20.515625 -9.09375 C 23.546875 -9.09375 26.390625 -9.828125 29.046875 -11.296875 C 31.710938 -12.773438 34.351562 -14.660156 36.96875 -16.953125 C 39.59375 -19.242188 42.335938 -21.660156 45.203125 -24.203125 C 48.078125 -26.742188 51.171875 -29.160156 54.484375 -31.453125 C 57.804688 -33.742188 61.535156 -35.625 65.671875 -37.09375 C 69.804688 -38.570312 74.492188 -39.3125 79.734375 -39.3125 C 83.421875 -39.3125 86.695312 -38.59375 89.5625 -37.15625 C 92.425781 -35.726562 94.675781 -33.90625 96.3125 -31.6875 C 97.957031 -29.476562 98.78125 -27.144531 98.78125 -24.6875 C 98.78125 -23.789062 98.453125 -22.421875 97.796875 -20.578125 C 97.140625 -18.734375 96.359375 -16.804688 95.453125 -14.796875 C 94.554688 -12.796875 93.78125 -11.054688 93.125 -9.578125 C 91.8125 -6.710938 90.847656 -4.398438 90.234375 -2.640625 C 89.617188 -0.878906 88.78125 0 87.71875 0 C 86.976562 0 86.300781 -0.425781 85.6875 -1.28125 C 85.070312 -2.144531 84.273438 -3.171875 83.296875 -4.359375 C 82.316406 -5.546875 80.882812 -6.566406 79 -7.421875 C 77.113281 -8.285156 74.492188 -8.71875 71.140625 -8.71875 C 67.691406 -8.71875 64.390625 -8.285156 61.234375 -7.421875 C 58.085938 -6.566406 54.914062 -5.546875 51.71875 -4.359375 C 48.53125 -3.171875 45.15625 -2.144531 41.59375 -1.28125 C 38.03125 -0.425781 34.117188 0 29.859375 0 C 24.773438 0 20.453125 -0.976562 16.890625 -2.9375 C 13.328125 -4.90625 10.625 -7.585938 8.78125 -10.984375 C 6.9375 -14.390625 6.015625 -18.222656 6.015625 -22.484375 C 6.015625 -27.316406 7.097656 -31.757812 9.265625 -35.8125 C 11.441406 -39.863281 14.351562 -43.609375 18 -47.046875 C 21.644531 -50.492188 25.738281 -53.753906 30.28125 -56.828125 C 34.832031 -59.898438 39.539062 -62.828125 44.40625 -65.609375 C 49.28125 -68.390625 53.988281 -71.191406 58.53125 -74.015625 C 63.082031 -76.847656 67.179688 -79.757812 70.828125 -82.75 C 74.472656 -85.738281 77.378906 -88.910156 79.546875 -92.265625 C 81.722656 -95.628906 82.8125 -99.273438 82.8125 -103.203125 C 82.8125 -106.804688 81.722656 -109.859375 79.546875 -112.359375 C 77.378906 -114.859375 74.453125 -116.757812 70.765625 -118.0625 C 67.078125 -119.375 62.941406 -120.03125 58.359375 -120.03125 C 53.773438 -120.03125 49.535156 -119.128906 45.640625 -117.328125 C 41.753906 -115.523438 38.660156 -113.003906 36.359375 -109.765625 C 34.066406 -106.535156 32.921875 -102.707031 32.921875 -98.28125 C 32.921875 -95.832031 33.578125 -93.539062 34.890625 -91.40625 C 36.203125 -89.28125 37.859375 -87.582031 39.859375 -86.3125 C 41.867188 -85.039062 43.898438 -84.40625 45.953125 -84.40625 C 46.929688 -82.351562 46.828125 -80.117188 45.640625 -77.703125 C 44.453125 -75.285156 42.425781 -73.21875 39.5625 -71.5 C 36.695312 -69.78125 33.21875 -68.921875 29.125 -68.921875 C 24.695312 -68.921875 20.640625 -70.046875 16.953125 -72.296875 C 13.265625 -74.554688 10.335938 -77.546875 8.171875 -81.265625 C 6.003906 -84.992188 4.921875 -89.113281 4.921875 -93.625 Z M 4.921875 -93.625 "/></g></g><g style="fill:#ffde59;fill-opacity:1;"><g transform="translate(567.002383, 223.279095)"><path style="stroke:none" d="M 17.453125 -24.8125 C 13.679688 -24.8125 10.441406 -25.816406 7.734375 -27.828125 C 5.035156 -29.835938 3.6875 -32.765625 3.6875 -36.609375 C 3.6875 -40.867188 4.257812 -44.898438 5.40625 -48.703125 C 6.550781 -52.515625 7.960938 -56.304688 9.640625 -60.078125 C 11.316406 -63.847656 12.992188 -67.859375 14.671875 -72.109375 C 16.359375 -76.367188 17.773438 -81.054688 18.921875 -86.171875 C 20.066406 -91.296875 20.640625 -97.132812 20.640625 -103.6875 C 20.640625 -108.519531 19.984375 -112.304688 18.671875 -115.046875 C 17.359375 -117.796875 15.722656 -120.398438 13.765625 -122.859375 L 48.78125 -122.859375 C 51.726562 -122.859375 54.0625 -122.117188 55.78125 -120.640625 C 57.5 -119.171875 58.722656 -117.304688 59.453125 -115.046875 C 60.191406 -112.796875 60.5625 -110.523438 60.5625 -108.234375 C 60.5625 -102.910156 59.394531 -97.8125 57.0625 -92.9375 C 54.726562 -88.070312 51.71875 -83.445312 48.03125 -79.0625 C 44.351562 -74.675781 40.425781 -70.515625 36.25 -66.578125 C 32.070312 -62.648438 28.140625 -58.96875 24.453125 -55.53125 C 20.765625 -52.09375 17.753906 -48.878906 15.421875 -45.890625 C 13.085938 -42.898438 11.921875 -40.132812 11.921875 -37.59375 C 11.921875 -35.789062 12.429688 -34.414062 13.453125 -33.46875 C 14.472656 -32.53125 15.71875 -31.875 17.1875 -31.5 C 18.664062 -31.132812 20.0625 -30.953125 21.375 -30.953125 L 56.140625 -30.953125 L 56.140625 -58.84375 C 56.140625 -62.363281 55.832031 -65.25 55.21875 -67.5 C 54.601562 -69.757812 53.476562 -71.707031 51.84375 -73.34375 L 93 -73.34375 C 91.363281 -71.707031 90.238281 -69.757812 89.625 -67.5 C 89.007812 -65.25 88.703125 -62.363281 88.703125 -58.84375 L 88.703125 -30.953125 L 99.265625 -30.953125 L 99.265625 -24.8125 L 88.703125 -24.8125 L 88.703125 -14.5 C 88.703125 -10.976562 89.007812 -8.085938 89.625 -5.828125 C 90.238281 -3.578125 91.363281 -1.632812 93 0 L 51.84375 0 C 53.476562 -1.632812 54.601562 -3.578125 55.21875 -5.828125 C 55.832031 -8.085938 56.140625 -10.976562 56.140625 -14.5 L 56.140625 -24.8125 Z M 17.453125 -24.8125 "/></g></g><g clip-rule="nonzero" clip-path="url(#4933f06087)"><path style=" stroke:none;fill-rule:nonzero;fill:#ffffef;fill-opacity:1;" d="M 674.167969 0 C 675.820312 86.9375 677.125 89.539062 720.296875 92.851562 C 677.125 96.101562 675.761719 98.765625 674.167969 185.699219 C 672.511719 98.765625 671.210938 96.160156 628.035156 92.851562 C 671.210938 89.539062 672.570312 86.9375 674.167969 0 Z M 674.167969 0 "/></g></g></svg>