<svg xmlns="http://www.w3.org/2000/svg" xmlns:xlink="http://www.w3.org/1999/xlink" width="927" zoomAndPan="magnify" viewBox="0 0 695.25 175.5" height="234" preserveAspectRatio="xMidYMid meet" version="1.2"><defs><clipPath id="286d16b792"><path d="M 402.644531 76.699219 L 438.542969 76.699219 L 438.542969 148.496094 L 402.644531 148.496094 Z M 402.644531 76.699219 "/></clipPath></defs><g id="09fbbe13a3"><g style="fill:#fff7e1;fill-opacity:1;"><g transform="translate(57.147472, 117.065853)"><path style="stroke:none" d="M -0.765625 -68.828125 C -0.765625 -69.242188 -0.632812 -69.5 -0.375 -69.59375 C -0.125 -69.695312 0.0234375 -69.773438 0.078125 -69.828125 C 0.691406 -70.085938 1.679688 -70.535156 3.046875 -71.171875 C 4.410156 -71.816406 5.976562 -72.535156 7.75 -73.328125 C 9.519531 -74.128906 11.300781 -74.898438 13.09375 -75.640625 C 14.894531 -76.390625 16.566406 -77.007812 18.109375 -77.5 C 19.648438 -77.988281 20.882812 -78.234375 21.8125 -78.234375 C 22.945312 -78.234375 23.613281 -77.925781 23.8125 -77.3125 C 24.019531 -76.695312 24.125 -76.003906 24.125 -75.234375 L 24.125 -49.796875 C 24.28125 -49.429688 24.457031 -49.207031 24.65625 -49.125 C 24.863281 -49.050781 25.097656 -49.015625 25.359375 -49.015625 C 25.765625 -49.015625 26.265625 -49.320312 26.859375 -49.9375 C 27.453125 -50.5625 28.234375 -51.269531 29.203125 -52.0625 C 30.179688 -52.863281 31.40625 -53.570312 32.875 -54.1875 C 34.34375 -54.800781 36.15625 -55.109375 38.3125 -55.109375 C 42.113281 -55.109375 45.390625 -54.25 48.140625 -52.53125 C 50.890625 -50.8125 53.148438 -48.535156 54.921875 -45.703125 C 56.691406 -42.878906 58 -39.742188 58.84375 -36.296875 C 59.695312 -32.859375 60.125 -29.390625 60.125 -25.890625 C 60.125 -20.910156 59.273438 -16.378906 57.578125 -12.296875 C 55.878906 -8.210938 53.398438 -4.945312 50.140625 -2.5 C 46.878906 -0.0625 42.9375 1.15625 38.3125 1.15625 C 36.300781 1.15625 34.191406 0.65625 31.984375 -0.34375 C 29.773438 -1.34375 27.617188 -3.488281 25.515625 -6.78125 C 25.253906 -7.195312 24.957031 -7.492188 24.625 -7.671875 C 24.289062 -7.847656 24.125 -7.65625 24.125 -7.09375 L 24.125 -6.328125 C 24.125 -4.367188 23.828125 -2.820312 23.234375 -1.6875 C 22.648438 -0.5625 21.535156 0 19.890625 0 L 1 0 C 2.03125 -1.03125 2.738281 -2.25 3.125 -3.65625 C 3.507812 -5.070312 3.703125 -6.882812 3.703125 -9.09375 L 3.703125 -61.8125 C 3.703125 -62.125 3.675781 -62.675781 3.625 -63.46875 C 3.570312 -64.269531 3.328125 -65.082031 2.890625 -65.90625 C 2.453125 -66.726562 1.617188 -67.34375 0.390625 -67.75 C 0.285156 -67.800781 0.0664062 -67.878906 -0.265625 -67.984375 C -0.597656 -68.085938 -0.765625 -68.367188 -0.765625 -68.828125 Z M 24.125 -20.65625 C 24.125 -19.570312 24.1875 -18.347656 24.3125 -16.984375 C 24.445312 -15.628906 24.742188 -14.296875 25.203125 -12.984375 C 25.660156 -11.671875 26.335938 -10.59375 27.234375 -9.75 C 28.140625 -8.90625 29.363281 -8.484375 30.90625 -8.484375 C 33.0625 -8.484375 34.742188 -9.070312 35.953125 -10.25 C 37.160156 -11.4375 38.035156 -12.992188 38.578125 -14.921875 C 39.117188 -16.847656 39.453125 -18.960938 39.578125 -21.265625 C 39.703125 -23.578125 39.765625 -25.84375 39.765625 -28.0625 C 39.765625 -30.164062 39.632812 -32.320312 39.375 -34.53125 C 39.125 -36.738281 38.640625 -38.789062 37.921875 -40.6875 C 37.203125 -42.59375 36.1875 -44.125 34.875 -45.28125 C 33.5625 -46.4375 31.828125 -47.015625 29.671875 -47.015625 C 28.492188 -47.015625 27.53125 -46.613281 26.78125 -45.8125 C 26.039062 -45.019531 25.476562 -44.019531 25.09375 -42.8125 C 24.707031 -41.601562 24.445312 -40.359375 24.3125 -39.078125 C 24.1875 -37.796875 24.125 -36.664062 24.125 -35.6875 Z M 24.125 -20.65625 "/></g></g><g style="fill:#fff7e1;fill-opacity:1;"><g transform="translate(119.194615, 117.065853)"><path style="stroke:none" d="M 0.390625 -53.953125 L 26.203125 -53.953125 C 25.179688 -52.921875 24.476562 -51.695312 24.09375 -50.28125 C 23.707031 -48.875 23.515625 -47.066406 23.515625 -44.859375 L 23.515625 -19.8125 C 23.515625 -18.0625 23.820312 -16.476562 24.4375 -15.0625 C 25.050781 -13.65625 26.207031 -12.953125 27.90625 -12.953125 C 29.082031 -12.953125 30.1875 -13.269531 31.21875 -13.90625 C 32.25 -14.550781 33.082031 -15.671875 33.71875 -17.265625 C 34.363281 -18.859375 34.6875 -21.066406 34.6875 -23.890625 L 34.6875 -44.859375 C 34.6875 -47.066406 34.492188 -48.875 34.109375 -50.28125 C 33.722656 -51.695312 33.015625 -52.921875 31.984375 -53.953125 L 57.8125 -53.953125 C 56.78125 -52.921875 56.070312 -51.695312 55.6875 -50.28125 C 55.300781 -48.875 55.109375 -47.066406 55.109375 -44.859375 L 55.109375 -9.09375 C 55.109375 -6.882812 55.300781 -5.070312 55.6875 -3.65625 C 56.070312 -2.25 56.78125 -1.03125 57.8125 0 L 38.921875 0 C 37.273438 0 36.15625 -0.578125 35.5625 -1.734375 C 34.976562 -2.890625 34.6875 -4.441406 34.6875 -6.390625 L 34.6875 -7.703125 C 34.6875 -8.628906 34.632812 -9.171875 34.53125 -9.328125 C 34.425781 -9.484375 34.296875 -9.5625 34.140625 -9.5625 C 33.523438 -9.5625 32.921875 -9.203125 32.328125 -8.484375 C 31.742188 -7.765625 31.050781 -6.875 30.25 -5.8125 C 29.457031 -4.757812 28.484375 -3.691406 27.328125 -2.609375 C 26.171875 -1.535156 24.703125 -0.640625 22.921875 0.078125 C 21.148438 0.796875 18.957031 1.15625 16.34375 1.15625 C 13.507812 1.15625 11.234375 0.601562 9.515625 -0.5 C 7.796875 -1.601562 6.472656 -3.066406 5.546875 -4.890625 C 4.617188 -6.710938 3.988281 -8.675781 3.65625 -10.78125 C 3.320312 -12.894531 3.15625 -14.953125 3.15625 -16.953125 L 3.078125 -31.671875 L 3.078125 -44.859375 C 3.078125 -47.066406 2.882812 -48.875 2.5 -50.28125 C 2.113281 -51.695312 1.410156 -52.921875 0.390625 -53.953125 Z M 0.390625 -53.953125 "/></g></g><g style="fill:#fff7e1;fill-opacity:1;"><g transform="translate(177.773289, 117.065853)"><path style="stroke:none" d="M 0 -45.703125 C 0 -46.117188 0.125 -46.375 0.375 -46.46875 C 0.632812 -46.570312 0.789062 -46.648438 0.84375 -46.703125 C 1.457031 -47.015625 2.421875 -47.488281 3.734375 -48.125 C 5.046875 -48.769531 6.535156 -49.488281 8.203125 -50.28125 C 9.878906 -51.082031 11.585938 -51.84375 13.328125 -52.5625 C 15.078125 -53.28125 16.695312 -53.882812 18.1875 -54.375 C 19.675781 -54.863281 20.882812 -55.109375 21.8125 -55.109375 C 22.945312 -55.109375 23.613281 -54.800781 23.8125 -54.1875 C 24.019531 -53.570312 24.125 -52.878906 24.125 -52.109375 L 24.125 -9.09375 C 24.125 -6.882812 24.316406 -5.070312 24.703125 -3.65625 C 25.085938 -2.25 25.796875 -1.03125 26.828125 0 L 1 0 C 2.03125 -1.03125 2.738281 -2.25 3.125 -3.65625 C 3.507812 -5.070312 3.703125 -6.882812 3.703125 -9.09375 L 3.703125 -38.6875 C 3.703125 -39 3.6875 -39.566406 3.65625 -40.390625 C 3.632812 -41.210938 3.457031 -42.046875 3.125 -42.890625 C 2.789062 -43.742188 2.132812 -44.320312 1.15625 -44.625 C 1.050781 -44.675781 0.832031 -44.753906 0.5 -44.859375 C 0.164062 -44.960938 0 -45.242188 0 -45.703125 Z M 13.71875 -81.625 C 17.113281 -81.625 19.835938 -80.59375 21.890625 -78.53125 C 23.941406 -76.476562 24.96875 -73.757812 24.96875 -70.375 C 24.96875 -66.976562 23.941406 -64.253906 21.890625 -62.203125 C 19.835938 -60.148438 17.113281 -59.125 13.71875 -59.125 C 10.320312 -59.125 7.597656 -60.148438 5.546875 -62.203125 C 3.492188 -64.253906 2.46875 -66.976562 2.46875 -70.375 C 2.46875 -73.757812 3.492188 -76.476562 5.546875 -78.53125 C 7.597656 -80.59375 10.320312 -81.625 13.71875 -81.625 Z M 13.71875 -81.625 "/></g></g><g style="fill:#fff7e1;fill-opacity:1;"><g transform="translate(204.981542, 117.065853)"><path style="stroke:none" d="M 0.390625 -67.75 C 0.285156 -67.800781 0.0664062 -67.878906 -0.265625 -67.984375 C -0.597656 -68.085938 -0.765625 -68.367188 -0.765625 -68.828125 C -0.765625 -69.242188 -0.632812 -69.5 -0.375 -69.59375 C -0.125 -69.695312 0.0234375 -69.773438 0.078125 -69.828125 C 0.691406 -70.140625 1.679688 -70.613281 3.046875 -71.25 C 4.410156 -71.894531 5.960938 -72.613281 7.703125 -73.40625 C 9.453125 -74.207031 11.238281 -74.96875 13.0625 -75.6875 C 14.882812 -76.40625 16.566406 -77.007812 18.109375 -77.5 C 19.648438 -77.988281 20.882812 -78.234375 21.8125 -78.234375 C 22.945312 -78.234375 23.613281 -77.925781 23.8125 -77.3125 C 24.019531 -76.695312 24.125 -76.003906 24.125 -75.234375 L 24.125 -9.09375 C 24.125 -6.882812 24.316406 -5.070312 24.703125 -3.65625 C 25.085938 -2.25 25.796875 -1.03125 26.828125 0 L 7.9375 0 C 6.289062 0 5.171875 -0.5625 4.578125 -1.6875 C 3.992188 -2.820312 3.703125 -4.367188 3.703125 -6.328125 L 3.703125 -61.8125 C 3.703125 -62.125 3.6875 -62.691406 3.65625 -63.515625 C 3.632812 -64.335938 3.390625 -65.171875 2.921875 -66.015625 C 2.460938 -66.867188 1.617188 -67.445312 0.390625 -67.75 Z M 0.390625 -67.75 "/></g></g><g style="fill:#fff7e1;fill-opacity:1;"><g transform="translate(232.575175, 117.065853)"><path style="stroke:none" d="M 23.734375 1.15625 C 19.109375 1.15625 15.175781 -0.0625 11.9375 -2.5 C 8.707031 -4.945312 6.226562 -8.210938 4.5 -12.296875 C 2.78125 -16.378906 1.921875 -20.910156 1.921875 -25.890625 C 1.921875 -29.390625 2.34375 -32.859375 3.1875 -36.296875 C 4.039062 -39.742188 5.351562 -42.878906 7.125 -45.703125 C 8.894531 -48.535156 11.15625 -50.8125 13.90625 -52.53125 C 16.65625 -54.25 19.929688 -55.109375 23.734375 -55.109375 C 25.898438 -55.109375 27.710938 -54.800781 29.171875 -54.1875 C 30.640625 -53.570312 31.859375 -52.863281 32.828125 -52.0625 C 33.804688 -51.269531 34.601562 -50.5625 35.21875 -49.9375 C 35.84375 -49.320312 36.332031 -49.015625 36.6875 -49.015625 C 36.84375 -49.015625 37.085938 -49.101562 37.421875 -49.28125 C 37.753906 -49.46875 37.921875 -50.050781 37.921875 -51.03125 L 37.921875 -61.8125 C 37.921875 -62.125 37.894531 -62.675781 37.84375 -63.46875 C 37.789062 -64.269531 37.546875 -65.082031 37.109375 -65.90625 C 36.671875 -66.726562 35.835938 -67.34375 34.609375 -67.75 C 34.503906 -67.800781 34.285156 -67.878906 33.953125 -67.984375 C 33.617188 -68.085938 33.453125 -68.367188 33.453125 -68.828125 C 33.453125 -69.242188 33.578125 -69.5 33.828125 -69.59375 C 34.085938 -69.695312 34.242188 -69.773438 34.296875 -69.828125 C 34.910156 -70.085938 35.898438 -70.535156 37.265625 -71.171875 C 38.628906 -71.816406 40.195312 -72.535156 41.96875 -73.328125 C 43.738281 -74.128906 45.523438 -74.898438 47.328125 -75.640625 C 49.128906 -76.390625 50.796875 -77.007812 52.328125 -77.5 C 53.867188 -77.988281 55.101562 -78.234375 56.03125 -78.234375 C 57.164062 -78.234375 57.832031 -77.925781 58.03125 -77.3125 C 58.238281 -76.695312 58.34375 -76.003906 58.34375 -75.234375 L 58.34375 -9.09375 C 58.34375 -6.882812 58.535156 -5.070312 58.921875 -3.65625 C 59.304688 -2.25 60.015625 -1.03125 61.046875 0 L 42.15625 0 C 40.507812 0 39.390625 -0.5625 38.796875 -1.6875 C 38.210938 -2.820312 37.921875 -4.367188 37.921875 -6.328125 L 37.921875 -7.09375 C 37.921875 -7.65625 37.753906 -7.847656 37.421875 -7.671875 C 37.085938 -7.492188 36.789062 -7.195312 36.53125 -6.78125 C 35.195312 -4.570312 33.796875 -2.898438 32.328125 -1.765625 C 30.867188 -0.640625 29.40625 0.125 27.9375 0.53125 C 26.476562 0.945312 25.078125 1.15625 23.734375 1.15625 Z M 32.375 -47.015625 C 30.21875 -47.015625 28.484375 -46.4375 27.171875 -45.28125 C 25.859375 -44.125 24.84375 -42.59375 24.125 -40.6875 C 23.40625 -38.789062 22.914062 -36.738281 22.65625 -34.53125 C 22.40625 -32.320312 22.28125 -30.164062 22.28125 -28.0625 C 22.28125 -25.84375 22.34375 -23.578125 22.46875 -21.265625 C 22.59375 -18.960938 22.925781 -16.847656 23.46875 -14.921875 C 24.007812 -12.992188 24.882812 -11.4375 26.09375 -10.25 C 27.300781 -9.070312 28.984375 -8.484375 31.140625 -8.484375 C 32.679688 -8.484375 33.898438 -8.90625 34.796875 -9.75 C 35.703125 -10.59375 36.382812 -11.671875 36.84375 -12.984375 C 37.300781 -14.296875 37.59375 -15.628906 37.71875 -16.984375 C 37.851562 -18.347656 37.921875 -19.570312 37.921875 -20.65625 L 37.921875 -35.6875 C 37.921875 -36.664062 37.851562 -37.796875 37.71875 -39.078125 C 37.59375 -40.359375 37.335938 -41.601562 36.953125 -42.8125 C 36.566406 -44.019531 36 -45.019531 35.25 -45.8125 C 34.507812 -46.613281 33.550781 -47.015625 32.375 -47.015625 Z M 32.375 -47.015625 "/></g></g><g style="fill:#ffde59;fill-opacity:1;"><g transform="translate(280.206645, 115.570114)"><path style="stroke:none" d="M 2.828125 -54 C 2.828125 -57.21875 3.628906 -60.003906 5.234375 -62.359375 C 6.847656 -64.722656 9 -66.695312 11.6875 -68.28125 C 14.382812 -69.863281 17.363281 -71.046875 20.625 -71.828125 C 23.882812 -72.609375 27.144531 -73 30.40625 -73 C 34.1875 -73 37.707031 -72.488281 40.96875 -71.46875 C 44.226562 -70.457031 47.097656 -68.972656 49.578125 -67.015625 C 52.054688 -65.054688 53.992188 -62.644531 55.390625 -59.78125 C 56.785156 -56.925781 57.484375 -53.628906 57.484375 -49.890625 C 57.484375 -45.785156 56.785156 -42.289062 55.390625 -39.40625 C 53.992188 -36.519531 52.113281 -34.117188 49.75 -32.203125 C 47.382812 -30.296875 44.722656 -28.710938 41.765625 -27.453125 C 38.816406 -26.203125 35.769531 -25.140625 32.625 -24.265625 C 29.488281 -23.398438 26.441406 -22.578125 23.484375 -21.796875 C 20.535156 -21.015625 17.878906 -20.148438 15.515625 -19.203125 C 13.160156 -18.265625 11.285156 -17.070312 9.890625 -15.625 C 8.492188 -14.1875 7.796875 -12.359375 7.796875 -10.140625 C 7.796875 -8.859375 8.125 -7.722656 8.78125 -6.734375 C 9.445312 -5.742188 10.46875 -5.25 11.84375 -5.25 C 13.582031 -5.25 15.21875 -5.671875 16.75 -6.515625 C 18.289062 -7.367188 19.816406 -8.457031 21.328125 -9.78125 C 22.835938 -11.101562 24.421875 -12.492188 26.078125 -13.953125 C 27.734375 -15.421875 29.515625 -16.816406 31.421875 -18.140625 C 33.335938 -19.460938 35.488281 -20.550781 37.875 -21.40625 C 40.269531 -22.257812 42.976562 -22.6875 46 -22.6875 C 48.125 -22.6875 50.015625 -22.269531 51.671875 -21.4375 C 53.328125 -20.613281 54.625 -19.5625 55.5625 -18.28125 C 56.507812 -17.007812 56.984375 -15.664062 56.984375 -14.25 C 56.984375 -13.726562 56.789062 -12.9375 56.40625 -11.875 C 56.03125 -10.8125 55.582031 -9.695312 55.0625 -8.53125 C 54.550781 -7.375 54.101562 -6.375 53.71875 -5.53125 C 52.96875 -3.875 52.414062 -2.535156 52.0625 -1.515625 C 51.707031 -0.503906 51.222656 0 50.609375 0 C 50.179688 0 49.789062 -0.242188 49.4375 -0.734375 C 49.082031 -1.234375 48.617188 -1.828125 48.046875 -2.515625 C 47.484375 -3.203125 46.65625 -3.789062 45.5625 -4.28125 C 44.476562 -4.78125 42.96875 -5.03125 41.03125 -5.03125 C 39.050781 -5.03125 37.148438 -4.78125 35.328125 -4.28125 C 33.515625 -3.789062 31.6875 -3.203125 29.84375 -2.515625 C 28 -1.828125 26.046875 -1.234375 23.984375 -0.734375 C 21.929688 -0.242188 19.675781 0 17.21875 0 C 14.289062 0 11.796875 -0.566406 9.734375 -1.703125 C 7.679688 -2.835938 6.125 -4.382812 5.0625 -6.34375 C 4 -8.300781 3.46875 -10.507812 3.46875 -12.96875 C 3.46875 -15.757812 4.09375 -18.320312 5.34375 -20.65625 C 6.601562 -23 8.28125 -25.160156 10.375 -27.140625 C 12.476562 -29.128906 14.84375 -31.007812 17.46875 -32.78125 C 20.09375 -34.550781 22.8125 -36.238281 25.625 -37.84375 C 28.4375 -39.445312 31.148438 -41.0625 33.765625 -42.6875 C 36.390625 -44.320312 38.753906 -46.003906 40.859375 -47.734375 C 42.960938 -49.460938 44.640625 -51.296875 45.890625 -53.234375 C 47.140625 -55.171875 47.765625 -57.269531 47.765625 -59.53125 C 47.765625 -61.613281 47.140625 -63.375 45.890625 -64.8125 C 44.640625 -66.257812 42.953125 -67.359375 40.828125 -68.109375 C 38.703125 -68.867188 36.316406 -69.25 33.671875 -69.25 C 31.023438 -69.25 28.578125 -68.726562 26.328125 -67.6875 C 24.085938 -66.644531 22.304688 -65.191406 20.984375 -63.328125 C 19.660156 -61.460938 19 -59.253906 19 -56.703125 C 19 -55.285156 19.375 -53.960938 20.125 -52.734375 C 20.882812 -51.503906 21.84375 -50.519531 23 -49.78125 C 24.15625 -49.050781 25.320312 -48.6875 26.5 -48.6875 C 27.070312 -47.507812 27.015625 -46.222656 26.328125 -44.828125 C 25.640625 -43.429688 24.46875 -42.238281 22.8125 -41.25 C 21.164062 -40.257812 19.160156 -39.765625 16.796875 -39.765625 C 14.242188 -39.765625 11.90625 -40.410156 9.78125 -41.703125 C 7.65625 -43.003906 5.960938 -44.726562 4.703125 -46.875 C 3.453125 -49.03125 2.828125 -51.40625 2.828125 -54 Z M 2.828125 -54 "/></g></g><g style="fill:#ffde59;fill-opacity:1;"><g transform="translate(341.217582, 115.570114)"><path style="stroke:none" d="M 10.0625 -14.3125 C 7.882812 -14.3125 6.015625 -14.890625 4.453125 -16.046875 C 2.898438 -17.210938 2.125 -18.90625 2.125 -21.125 C 2.125 -23.582031 2.453125 -25.90625 3.109375 -28.09375 C 3.773438 -30.289062 4.59375 -32.476562 5.5625 -34.65625 C 6.53125 -36.832031 7.5 -39.148438 8.46875 -41.609375 C 9.4375 -44.066406 10.25 -46.769531 10.90625 -49.71875 C 11.570312 -52.675781 11.90625 -56.039062 11.90625 -59.8125 C 11.90625 -62.601562 11.523438 -64.789062 10.765625 -66.375 C 10.015625 -67.957031 9.070312 -69.457031 7.9375 -70.875 L 28.140625 -70.875 C 29.835938 -70.875 31.179688 -70.445312 32.171875 -69.59375 C 33.171875 -68.75 33.878906 -67.675781 34.296875 -66.375 C 34.722656 -65.070312 34.9375 -63.757812 34.9375 -62.4375 C 34.9375 -59.363281 34.265625 -56.421875 32.921875 -53.609375 C 31.578125 -50.804688 29.835938 -48.140625 27.703125 -45.609375 C 25.578125 -43.078125 23.3125 -40.675781 20.90625 -38.40625 C 18.5 -36.144531 16.234375 -34.019531 14.109375 -32.03125 C 11.984375 -30.050781 10.242188 -28.195312 8.890625 -26.46875 C 7.546875 -24.75 6.875 -23.15625 6.875 -21.6875 C 6.875 -20.644531 7.164062 -19.851562 7.75 -19.3125 C 8.34375 -18.769531 9.066406 -18.390625 9.921875 -18.171875 C 10.773438 -17.960938 11.578125 -17.859375 12.328125 -17.859375 L 32.390625 -17.859375 L 32.390625 -33.953125 C 32.390625 -35.984375 32.210938 -37.644531 31.859375 -38.9375 C 31.503906 -40.238281 30.851562 -41.363281 29.90625 -42.3125 L 53.65625 -42.3125 C 52.707031 -41.363281 52.054688 -40.238281 51.703125 -38.9375 C 51.347656 -37.644531 51.171875 -35.984375 51.171875 -33.953125 L 51.171875 -17.859375 L 57.265625 -17.859375 L 57.265625 -14.3125 L 51.171875 -14.3125 L 51.171875 -8.359375 C 51.171875 -6.328125 51.347656 -4.660156 51.703125 -3.359375 C 52.054688 -2.066406 52.707031 -0.945312 53.65625 0 L 29.90625 0 C 30.851562 -0.945312 31.503906 -2.066406 31.859375 -3.359375 C 32.210938 -4.660156 32.390625 -6.328125 32.390625 -8.359375 L 32.390625 -14.3125 Z M 10.0625 -14.3125 "/></g></g><g clip-rule="nonzero" clip-path="url(#286d16b792)"><path style=" stroke:none;fill-rule:nonzero;fill:#ffffef;fill-opacity:1;" d="M 420.523438 76.699219 C 421.160156 110.179688 421.664062 111.179688 438.289062 112.457031 C 421.664062 113.710938 421.140625 114.734375 420.523438 148.214844 C 419.886719 114.734375 419.386719 113.730469 402.757812 112.457031 C 419.386719 111.179688 419.910156 110.179688 420.523438 76.699219 Z M 420.523438 76.699219 "/></g><g style="fill:#fff7e1;fill-opacity:1;"><g transform="translate(451.596993, 113.200358)"><path style="stroke:none" d="M 0 -53.953125 C 1.539062 -53.953125 3.257812 -54.488281 5.15625 -55.5625 C 7.0625 -56.644531 8.988281 -57.992188 10.9375 -59.609375 C 12.894531 -61.234375 14.742188 -62.84375 16.484375 -64.4375 C 18.234375 -66.03125 19.773438 -67.363281 21.109375 -68.4375 C 22.453125 -69.519531 23.429688 -70.0625 24.046875 -70.0625 C 25.023438 -70.0625 25.515625 -69.445312 25.515625 -68.21875 L 25.515625 -53.953125 L 32.140625 -53.953125 L 32.140625 -50.09375 L 25.515625 -50.09375 L 25.515625 -18.96875 C 25.515625 -16.957031 25.539062 -14.945312 25.59375 -12.9375 C 25.644531 -10.9375 25.925781 -9.140625 26.4375 -7.546875 C 26.945312 -5.960938 27.875 -4.734375 29.21875 -3.859375 C 29.519531 -3.648438 29.835938 -3.546875 30.171875 -3.546875 C 30.503906 -3.546875 30.851562 -3.492188 31.21875 -3.390625 C 31.113281 -2.460938 30.609375 -1.648438 29.703125 -0.953125 C 28.804688 -0.265625 27.742188 0.253906 26.515625 0.609375 C 25.285156 0.972656 24.050781 1.15625 22.8125 1.15625 C 19.113281 1.15625 16.144531 0.539062 13.90625 -0.6875 C 11.675781 -1.925781 9.984375 -3.582031 8.828125 -5.65625 C 7.671875 -7.738281 6.898438 -10.066406 6.515625 -12.640625 C 6.128906 -15.210938 5.9375 -17.804688 5.9375 -20.421875 L 5.9375 -45.171875 C 5.9375 -45.941406 5.894531 -46.710938 5.8125 -47.484375 C 5.738281 -48.253906 5.457031 -48.878906 4.96875 -49.359375 C 4.476562 -49.847656 3.617188 -50.09375 2.390625 -50.09375 L 0 -50.09375 Z M 0 -53.953125 "/></g></g><g style="fill:#fff7e1;fill-opacity:1;"><g transform="translate(484.508959, 113.200358)"><path style="stroke:none" d="M 1.921875 -25.515625 C 1.921875 -31.160156 2.972656 -36.207031 5.078125 -40.65625 C 7.191406 -45.101562 10.300781 -48.625 14.40625 -51.21875 C 18.519531 -53.8125 23.582031 -55.109375 29.59375 -55.109375 C 34.164062 -55.109375 38.054688 -54.128906 41.265625 -52.171875 C 44.484375 -50.222656 46.925781 -47.679688 48.59375 -44.546875 C 50.269531 -41.410156 51.109375 -38.070312 51.109375 -34.53125 C 51.109375 -31.957031 50.503906 -29.960938 49.296875 -28.546875 C 48.085938 -27.140625 46.441406 -26.140625 44.359375 -25.546875 C 42.273438 -24.960938 39.921875 -24.617188 37.296875 -24.515625 C 34.679688 -24.410156 31.945312 -24.421875 29.09375 -24.546875 C 26.238281 -24.671875 23.453125 -24.734375 20.734375 -24.734375 C 20.367188 -24.734375 19.984375 -24.695312 19.578125 -24.625 C 19.171875 -24.550781 18.96875 -24.179688 18.96875 -23.515625 C 18.96875 -22.835938 19.644531 -21.910156 21 -20.734375 C 22.363281 -19.554688 24.125 -18.347656 26.28125 -17.109375 C 28.4375 -15.878906 30.75 -14.851562 33.21875 -14.03125 C 35.6875 -13.207031 38.023438 -12.796875 40.234375 -12.796875 C 42.085938 -12.796875 43.578125 -13 44.703125 -13.40625 C 45.835938 -13.820312 46.738281 -14.285156 47.40625 -14.796875 C 48.070312 -15.304688 48.625 -15.765625 49.0625 -16.171875 C 49.5 -16.585938 49.894531 -16.796875 50.25 -16.796875 C 50.507812 -16.796875 50.78125 -16.691406 51.0625 -16.484375 C 51.34375 -16.285156 51.484375 -15.851562 51.484375 -15.1875 C 51.484375 -13.75 51.054688 -12.09375 50.203125 -10.21875 C 49.359375 -8.34375 48.078125 -6.539062 46.359375 -4.8125 C 44.640625 -3.09375 42.429688 -1.664062 39.734375 -0.53125 C 37.035156 0.59375 33.835938 1.15625 30.140625 1.15625 C 26.441406 1.15625 22.894531 0.488281 19.5 -0.84375 C 16.101562 -2.1875 13.09375 -4.0625 10.46875 -6.46875 C 7.851562 -8.882812 5.773438 -11.710938 4.234375 -14.953125 C 2.691406 -18.191406 1.921875 -21.710938 1.921875 -25.515625 Z M 10.5625 -39.625 C 10.5625 -37.820312 10.851562 -36.054688 11.4375 -34.328125 C 12.03125 -32.609375 12.984375 -31.195312 14.296875 -30.09375 C 15.609375 -28.988281 17.289062 -28.4375 19.34375 -28.4375 C 21.144531 -28.4375 22.96875 -28.5 24.8125 -28.625 C 26.664062 -28.757812 28.375 -29.019531 29.9375 -29.40625 C 31.507812 -29.789062 32.769531 -30.367188 33.71875 -31.140625 C 34.664062 -31.910156 35.140625 -32.9375 35.140625 -34.21875 C 35.140625 -36.226562 34.640625 -38.003906 33.640625 -39.546875 C 32.640625 -41.085938 31.328125 -42.394531 29.703125 -43.46875 C 28.085938 -44.550781 26.378906 -45.359375 24.578125 -45.890625 C 22.785156 -46.429688 21.066406 -46.703125 19.421875 -46.703125 C 17.984375 -46.703125 16.582031 -46.421875 15.21875 -45.859375 C 13.863281 -45.296875 12.75 -44.488281 11.875 -43.4375 C 11 -42.382812 10.5625 -41.113281 10.5625 -39.625 Z M 10.5625 -39.625 "/></g></g><g style="fill:#fff7e1;fill-opacity:1;"><g transform="translate(537.538068, 113.200358)"><path style="stroke:none" d="M 1.921875 -25.515625 C 1.921875 -29.523438 2.5 -33.3125 3.65625 -36.875 C 4.8125 -40.445312 6.554688 -43.59375 8.890625 -46.3125 C 11.234375 -49.039062 14.175781 -51.1875 17.71875 -52.75 C 21.269531 -54.320312 25.460938 -55.109375 30.296875 -55.109375 C 32.398438 -55.109375 34.53125 -54.800781 36.6875 -54.1875 C 38.84375 -53.570312 40.820312 -52.773438 42.625 -51.796875 C 44.425781 -50.816406 45.890625 -49.785156 47.015625 -48.703125 C 48.148438 -47.628906 48.71875 -46.628906 48.71875 -45.703125 C 48.71875 -45.035156 48.378906 -44.300781 47.703125 -43.5 C 47.035156 -42.707031 46.210938 -41.882812 45.234375 -41.03125 C 44.265625 -40.1875 43.316406 -39.351562 42.390625 -38.53125 C 41.316406 -37.613281 40.1875 -36.613281 39 -35.53125 C 37.820312 -34.457031 36.769531 -33.546875 35.84375 -32.796875 C 34.914062 -32.046875 34.25 -31.671875 33.84375 -31.671875 C 33.21875 -31.671875 32.816406 -31.953125 32.640625 -32.515625 C 32.460938 -33.085938 32.234375 -33.859375 31.953125 -34.828125 C 31.671875 -35.804688 31.09375 -36.914062 30.21875 -38.15625 C 28.625 -40.414062 26.671875 -42.378906 24.359375 -44.046875 C 22.046875 -45.722656 19.628906 -46.5625 17.109375 -46.5625 C 14.898438 -46.5625 13.203125 -45.800781 12.015625 -44.28125 C 10.835938 -42.757812 10.25 -40.84375 10.25 -38.53125 C 10.25 -36.019531 10.914062 -33.53125 12.25 -31.0625 C 13.59375 -28.59375 15.351562 -26.253906 17.53125 -24.046875 C 19.71875 -21.835938 22.132812 -19.894531 24.78125 -18.21875 C 27.425781 -16.550781 30.097656 -15.226562 32.796875 -14.25 C 35.492188 -13.28125 37.972656 -12.796875 40.234375 -12.796875 C 42.085938 -12.796875 43.578125 -13 44.703125 -13.40625 C 45.835938 -13.820312 46.738281 -14.285156 47.40625 -14.796875 C 48.070312 -15.304688 48.625 -15.765625 49.0625 -16.171875 C 49.5 -16.585938 49.894531 -16.796875 50.25 -16.796875 C 50.507812 -16.796875 50.78125 -16.691406 51.0625 -16.484375 C 51.34375 -16.285156 51.484375 -15.851562 51.484375 -15.1875 C 51.484375 -13.75 51.054688 -12.09375 50.203125 -10.21875 C 49.359375 -8.34375 48.078125 -6.539062 46.359375 -4.8125 C 44.640625 -3.09375 42.429688 -1.664062 39.734375 -0.53125 C 37.035156 0.59375 33.835938 1.15625 30.140625 1.15625 C 26.441406 1.15625 22.894531 0.488281 19.5 -0.84375 C 16.101562 -2.1875 13.09375 -4.0625 10.46875 -6.46875 C 7.851562 -8.882812 5.773438 -11.710938 4.234375 -14.953125 C 2.691406 -18.191406 1.921875 -21.710938 1.921875 -25.515625 Z M 1.921875 -25.515625 "/></g></g><g style="fill:#fff7e1;fill-opacity:1;"><g transform="translate(590.567176, 113.200358)"><path style="stroke:none" d="M 0.390625 -67.75 C 0.285156 -67.800781 0.0664062 -67.878906 -0.265625 -67.984375 C -0.597656 -68.085938 -0.765625 -68.367188 -0.765625 -68.828125 C -0.765625 -69.242188 -0.632812 -69.5 -0.375 -69.59375 C -0.125 -69.695312 0.0234375 -69.773438 0.078125 -69.828125 C 0.691406 -70.140625 1.679688 -70.613281 3.046875 -71.25 C 4.410156 -71.894531 5.960938 -72.613281 7.703125 -73.40625 C 9.453125 -74.207031 11.238281 -74.96875 13.0625 -75.6875 C 14.882812 -76.40625 16.566406 -77.007812 18.109375 -77.5 C 19.648438 -77.988281 20.882812 -78.234375 21.8125 -78.234375 C 22.945312 -78.234375 23.613281 -77.925781 23.8125 -77.3125 C 24.019531 -76.695312 24.125 -76.003906 24.125 -75.234375 L 24.125 -44.390625 C 24.226562 -44.390625 24.332031 -44.390625 24.4375 -44.390625 C 24.539062 -44.390625 24.617188 -44.390625 24.671875 -44.390625 C 25.285156 -44.390625 25.882812 -44.75 26.46875 -45.46875 C 27.0625 -46.195312 27.753906 -47.097656 28.546875 -48.171875 C 29.347656 -49.253906 30.328125 -50.320312 31.484375 -51.375 C 32.640625 -52.425781 34.101562 -53.3125 35.875 -54.03125 C 37.644531 -54.75 39.84375 -55.109375 42.46875 -55.109375 C 45.289062 -55.109375 47.5625 -54.554688 49.28125 -53.453125 C 51.007812 -52.347656 52.332031 -50.882812 53.25 -49.0625 C 54.175781 -47.238281 54.804688 -45.269531 55.140625 -43.15625 C 55.484375 -41.050781 55.65625 -39 55.65625 -37 L 55.734375 -22.28125 L 55.734375 -9.09375 C 55.734375 -6.882812 55.925781 -5.070312 56.3125 -3.65625 C 56.695312 -2.25 57.398438 -1.03125 58.421875 0 L 32.609375 0 C 33.628906 -1.03125 34.332031 -2.25 34.71875 -3.65625 C 35.101562 -5.070312 35.296875 -6.882812 35.296875 -9.09375 L 35.296875 -34.140625 C 35.296875 -35.941406 34.988281 -37.535156 34.375 -38.921875 C 33.757812 -40.304688 32.601562 -41 30.90625 -41 C 29.726562 -41 28.625 -40.675781 27.59375 -40.03125 C 26.5625 -39.394531 25.722656 -38.289062 25.078125 -36.71875 C 24.441406 -35.15625 24.125 -32.9375 24.125 -30.0625 L 24.125 -9.09375 C 24.125 -6.882812 24.316406 -5.070312 24.703125 -3.65625 C 25.085938 -2.25 25.796875 -1.03125 26.828125 0 L 1 0 C 2.03125 -1.03125 2.738281 -2.25 3.125 -3.65625 C 3.507812 -5.070312 3.703125 -6.882812 3.703125 -9.09375 L 3.703125 -61.8125 C 3.703125 -62.125 3.6875 -62.691406 3.65625 -63.515625 C 3.632812 -64.335938 3.390625 -65.171875 2.921875 -66.015625 C 2.460938 -66.867188 1.617188 -67.445312 0.390625 -67.75 Z M 0.390625 -67.75 "/></g></g></g></svg>