<svg xmlns="http://www.w3.org/2000/svg" xmlns:xlink="http://www.w3.org/1999/xlink" width="903" zoomAndPan="magnify" viewBox="0 0 677.25 171.750001" height="229" preserveAspectRatio="xMidYMid meet" version="1.2"><defs><clipPath id="c66abb69b8"><path d="M 402 59.484375 L 437.90625 59.484375 L 437.90625 131.378906 L 402 131.378906 Z M 402 59.484375 "/></clipPath></defs><g id="7f33732737"><g style="fill:#ffffef;fill-opacity:1;"><g transform="translate(56.730225, 113.357873)"><path style="stroke:none" d="M -0.765625 -68.921875 C -0.765625 -69.335938 -0.632812 -69.597656 -0.375 -69.703125 C -0.125 -69.804688 0.0234375 -69.882812 0.078125 -69.9375 C 0.691406 -70.1875 1.679688 -70.632812 3.046875 -71.28125 C 4.410156 -71.925781 5.976562 -72.644531 7.75 -73.4375 C 9.53125 -74.238281 11.320312 -75.007812 13.125 -75.75 C 14.925781 -76.5 16.597656 -77.117188 18.140625 -77.609375 C 19.679688 -78.097656 20.914062 -78.34375 21.84375 -78.34375 C 22.976562 -78.34375 23.644531 -78.035156 23.84375 -77.421875 C 24.050781 -76.804688 24.15625 -76.109375 24.15625 -75.328125 L 24.15625 -49.859375 C 24.3125 -49.503906 24.492188 -49.285156 24.703125 -49.203125 C 24.910156 -49.128906 25.140625 -49.09375 25.390625 -49.09375 C 25.804688 -49.09375 26.304688 -49.398438 26.890625 -50.015625 C 27.484375 -50.628906 28.269531 -51.335938 29.25 -52.140625 C 30.226562 -52.941406 31.453125 -53.648438 32.921875 -54.265625 C 34.390625 -54.878906 36.203125 -55.1875 38.359375 -55.1875 C 42.171875 -55.1875 45.453125 -54.320312 48.203125 -52.59375 C 50.953125 -50.875 53.210938 -48.597656 54.984375 -45.765625 C 56.765625 -42.941406 58.078125 -39.804688 58.921875 -36.359375 C 59.773438 -32.910156 60.203125 -29.4375 60.203125 -25.9375 C 60.203125 -20.945312 59.351562 -16.40625 57.65625 -12.3125 C 55.957031 -8.21875 53.472656 -4.945312 50.203125 -2.5 C 46.941406 -0.0625 42.992188 1.15625 38.359375 1.15625 C 36.359375 1.15625 34.25 0.65625 32.03125 -0.34375 C 29.820312 -1.351562 27.660156 -3.503906 25.546875 -6.796875 C 25.285156 -7.203125 24.988281 -7.492188 24.65625 -7.671875 C 24.320312 -7.859375 24.15625 -7.664062 24.15625 -7.09375 L 24.15625 -6.328125 C 24.15625 -4.367188 23.859375 -2.820312 23.265625 -1.6875 C 22.679688 -0.5625 21.566406 0 19.921875 0 L 1 0 C 2.03125 -1.03125 2.738281 -2.253906 3.125 -3.671875 C 3.507812 -5.085938 3.703125 -6.898438 3.703125 -9.109375 L 3.703125 -61.90625 C 3.703125 -62.21875 3.675781 -62.769531 3.625 -63.5625 C 3.570312 -64.363281 3.328125 -65.175781 2.890625 -66 C 2.453125 -66.820312 1.617188 -67.4375 0.390625 -67.84375 C 0.285156 -67.894531 0.0664062 -67.972656 -0.265625 -68.078125 C -0.597656 -68.179688 -0.765625 -68.460938 -0.765625 -68.921875 Z M 24.15625 -20.6875 C 24.15625 -19.601562 24.21875 -18.378906 24.34375 -17.015625 C 24.476562 -15.648438 24.773438 -14.3125 25.234375 -13 C 25.703125 -11.6875 26.382812 -10.601562 27.28125 -9.75 C 28.1875 -8.90625 29.410156 -8.484375 30.953125 -8.484375 C 33.109375 -8.484375 34.789062 -9.078125 36 -10.265625 C 37.21875 -11.453125 38.09375 -13.007812 38.625 -14.9375 C 39.164062 -16.863281 39.5 -18.984375 39.625 -21.296875 C 39.757812 -23.617188 39.828125 -25.882812 39.828125 -28.09375 C 39.828125 -30.207031 39.695312 -32.367188 39.4375 -34.578125 C 39.1875 -36.796875 38.695312 -38.851562 37.96875 -40.75 C 37.25 -42.65625 36.234375 -44.1875 34.921875 -45.34375 C 33.609375 -46.5 31.875 -47.078125 29.71875 -47.078125 C 28.53125 -47.078125 27.5625 -46.675781 26.8125 -45.875 C 26.070312 -45.082031 25.507812 -44.082031 25.125 -42.875 C 24.738281 -41.664062 24.476562 -40.414062 24.34375 -39.125 C 24.21875 -37.84375 24.15625 -36.710938 24.15625 -35.734375 Z M 24.15625 -20.6875 "/></g></g><g style="fill:#ffffef;fill-opacity:1;"><g transform="translate(118.8637, 113.357873)"><path style="stroke:none" d="M 0.390625 -54.03125 L 26.25 -54.03125 C 25.21875 -53 24.507812 -51.773438 24.125 -50.359375 C 23.738281 -48.953125 23.546875 -47.140625 23.546875 -44.921875 L 23.546875 -19.84375 C 23.546875 -18.09375 23.851562 -16.507812 24.46875 -15.09375 C 25.082031 -13.675781 26.238281 -12.96875 27.9375 -12.96875 C 29.125 -12.96875 30.234375 -13.285156 31.265625 -13.921875 C 32.296875 -14.566406 33.128906 -15.6875 33.765625 -17.28125 C 34.410156 -18.882812 34.734375 -21.097656 34.734375 -23.921875 L 34.734375 -44.921875 C 34.734375 -47.140625 34.539062 -48.953125 34.15625 -50.359375 C 33.769531 -51.773438 33.0625 -53 32.03125 -54.03125 L 57.890625 -54.03125 C 56.859375 -53 56.148438 -51.773438 55.765625 -50.359375 C 55.378906 -48.953125 55.1875 -47.140625 55.1875 -44.921875 L 55.1875 -9.109375 C 55.1875 -6.898438 55.378906 -5.085938 55.765625 -3.671875 C 56.148438 -2.253906 56.859375 -1.03125 57.890625 0 L 38.984375 0 C 37.335938 0 36.21875 -0.578125 35.625 -1.734375 C 35.03125 -2.890625 34.734375 -4.445312 34.734375 -6.40625 L 34.734375 -7.71875 C 34.734375 -8.644531 34.679688 -9.1875 34.578125 -9.34375 C 34.472656 -9.5 34.34375 -9.578125 34.1875 -9.578125 C 33.570312 -9.578125 32.96875 -9.210938 32.375 -8.484375 C 31.789062 -7.765625 31.097656 -6.878906 30.296875 -5.828125 C 29.492188 -4.773438 28.515625 -3.707031 27.359375 -2.625 C 26.203125 -1.539062 24.734375 -0.640625 22.953125 0.078125 C 21.179688 0.796875 18.984375 1.15625 16.359375 1.15625 C 13.535156 1.15625 11.257812 0.601562 9.53125 -0.5 C 7.8125 -1.601562 6.488281 -3.066406 5.5625 -4.890625 C 4.632812 -6.722656 4.003906 -8.691406 3.671875 -10.796875 C 3.335938 -12.910156 3.171875 -14.972656 3.171875 -16.984375 L 3.09375 -31.71875 L 3.09375 -44.921875 C 3.09375 -47.140625 2.898438 -48.953125 2.515625 -50.359375 C 2.128906 -51.773438 1.421875 -53 0.390625 -54.03125 Z M 0.390625 -54.03125 "/></g></g><g style="fill:#ffffef;fill-opacity:1;"><g transform="translate(177.523879, 113.357873)"><path style="stroke:none" d="M 0 -45.765625 C 0 -46.179688 0.125 -46.441406 0.375 -46.546875 C 0.632812 -46.648438 0.789062 -46.726562 0.84375 -46.78125 C 1.46875 -47.082031 2.4375 -47.554688 3.75 -48.203125 C 5.0625 -48.847656 6.550781 -49.566406 8.21875 -50.359375 C 9.894531 -51.160156 11.609375 -51.921875 13.359375 -52.640625 C 15.109375 -53.359375 16.726562 -53.960938 18.21875 -54.453125 C 19.707031 -54.941406 20.914062 -55.1875 21.84375 -55.1875 C 22.976562 -55.1875 23.644531 -54.878906 23.84375 -54.265625 C 24.050781 -53.648438 24.15625 -52.953125 24.15625 -52.171875 L 24.15625 -9.109375 C 24.15625 -6.898438 24.347656 -5.085938 24.734375 -3.671875 C 25.117188 -2.253906 25.828125 -1.03125 26.859375 0 L 1 0 C 2.03125 -1.03125 2.738281 -2.253906 3.125 -3.671875 C 3.507812 -5.085938 3.703125 -6.898438 3.703125 -9.109375 L 3.703125 -38.75 C 3.703125 -39.0625 3.6875 -39.628906 3.65625 -40.453125 C 3.632812 -41.273438 3.457031 -42.109375 3.125 -42.953125 C 2.789062 -43.804688 2.132812 -44.382812 1.15625 -44.6875 C 1.050781 -44.738281 0.832031 -44.816406 0.5 -44.921875 C 0.164062 -45.023438 0 -45.304688 0 -45.765625 Z M 13.734375 -81.734375 C 17.128906 -81.734375 19.859375 -80.703125 21.921875 -78.640625 C 23.984375 -76.585938 25.015625 -73.863281 25.015625 -70.46875 C 25.015625 -67.070312 23.984375 -64.34375 21.921875 -62.28125 C 19.859375 -60.226562 17.128906 -59.203125 13.734375 -59.203125 C 10.335938 -59.203125 7.609375 -60.226562 5.546875 -62.28125 C 3.492188 -64.34375 2.46875 -67.070312 2.46875 -70.46875 C 2.46875 -73.863281 3.492188 -76.585938 5.546875 -78.640625 C 7.609375 -80.703125 10.335938 -81.734375 13.734375 -81.734375 Z M 13.734375 -81.734375 "/></g></g><g style="fill:#ffffef;fill-opacity:1;"><g transform="translate(204.769989, 113.357873)"><path style="stroke:none" d="M 0.390625 -67.84375 C 0.285156 -67.894531 0.0664062 -67.972656 -0.265625 -68.078125 C -0.597656 -68.179688 -0.765625 -68.460938 -0.765625 -68.921875 C -0.765625 -69.335938 -0.632812 -69.597656 -0.375 -69.703125 C -0.125 -69.804688 0.0234375 -69.882812 0.078125 -69.9375 C 0.691406 -70.238281 1.679688 -70.710938 3.046875 -71.359375 C 4.410156 -72.003906 5.96875 -72.722656 7.71875 -73.515625 C 9.46875 -74.316406 11.253906 -75.078125 13.078125 -75.796875 C 14.910156 -76.515625 16.597656 -77.117188 18.140625 -77.609375 C 19.679688 -78.097656 20.914062 -78.34375 21.84375 -78.34375 C 22.976562 -78.34375 23.644531 -78.035156 23.84375 -77.421875 C 24.050781 -76.804688 24.15625 -76.109375 24.15625 -75.328125 L 24.15625 -9.109375 C 24.15625 -6.898438 24.347656 -5.085938 24.734375 -3.671875 C 25.117188 -2.253906 25.828125 -1.03125 26.859375 0 L 7.953125 0 C 6.304688 0 5.1875 -0.5625 4.59375 -1.6875 C 4 -2.820312 3.703125 -4.367188 3.703125 -6.328125 L 3.703125 -61.90625 C 3.703125 -62.21875 3.6875 -62.785156 3.65625 -63.609375 C 3.632812 -64.429688 3.390625 -65.265625 2.921875 -66.109375 C 2.460938 -66.960938 1.617188 -67.539062 0.390625 -67.84375 Z M 0.390625 -67.84375 "/></g></g><g style="fill:#ffffef;fill-opacity:1;"><g transform="translate(232.402015, 113.357873)"><path style="stroke:none" d="M 23.78125 1.15625 C 19.144531 1.15625 15.203125 -0.0625 11.953125 -2.5 C 8.710938 -4.945312 6.234375 -8.21875 4.515625 -12.3125 C 2.796875 -16.40625 1.9375 -20.945312 1.9375 -25.9375 C 1.9375 -29.4375 2.359375 -32.910156 3.203125 -36.359375 C 4.054688 -39.804688 5.367188 -42.941406 7.140625 -45.765625 C 8.910156 -48.597656 11.171875 -50.875 13.921875 -52.59375 C 16.679688 -54.320312 19.96875 -55.1875 23.78125 -55.1875 C 25.9375 -55.1875 27.75 -54.878906 29.21875 -54.265625 C 30.6875 -53.648438 31.90625 -52.941406 32.875 -52.140625 C 33.851562 -51.335938 34.648438 -50.628906 35.265625 -50.015625 C 35.890625 -49.398438 36.378906 -49.09375 36.734375 -49.09375 C 36.890625 -49.09375 37.132812 -49.179688 37.46875 -49.359375 C 37.800781 -49.535156 37.96875 -50.113281 37.96875 -51.09375 L 37.96875 -61.90625 C 37.96875 -62.21875 37.941406 -62.769531 37.890625 -63.5625 C 37.847656 -64.363281 37.609375 -65.175781 37.171875 -66 C 36.734375 -66.820312 35.894531 -67.4375 34.65625 -67.84375 C 34.550781 -67.894531 34.332031 -67.972656 34 -68.078125 C 33.664062 -68.179688 33.5 -68.460938 33.5 -68.921875 C 33.5 -69.335938 33.625 -69.597656 33.875 -69.703125 C 34.132812 -69.804688 34.289062 -69.882812 34.34375 -69.9375 C 34.96875 -70.1875 35.957031 -70.632812 37.3125 -71.28125 C 38.675781 -71.925781 40.242188 -72.644531 42.015625 -73.4375 C 43.796875 -74.238281 45.585938 -75.007812 47.390625 -75.75 C 49.191406 -76.5 50.863281 -77.117188 52.40625 -77.609375 C 53.945312 -78.097656 55.179688 -78.34375 56.109375 -78.34375 C 57.242188 -78.34375 57.914062 -78.035156 58.125 -77.421875 C 58.332031 -76.804688 58.4375 -76.109375 58.4375 -75.328125 L 58.4375 -9.109375 C 58.4375 -6.898438 58.628906 -5.085938 59.015625 -3.671875 C 59.398438 -2.253906 60.101562 -1.03125 61.125 0 L 42.21875 0 C 40.570312 0 39.453125 -0.5625 38.859375 -1.6875 C 38.265625 -2.820312 37.96875 -4.367188 37.96875 -6.328125 L 37.96875 -7.09375 C 37.96875 -7.664062 37.800781 -7.859375 37.46875 -7.671875 C 37.132812 -7.492188 36.84375 -7.203125 36.59375 -6.796875 C 35.25 -4.578125 33.84375 -2.898438 32.375 -1.765625 C 30.914062 -0.640625 29.453125 0.125 27.984375 0.53125 C 26.515625 0.945312 25.113281 1.15625 23.78125 1.15625 Z M 32.421875 -47.078125 C 30.253906 -47.078125 28.515625 -46.5 27.203125 -45.34375 C 25.890625 -44.1875 24.875 -42.65625 24.15625 -40.75 C 23.4375 -38.851562 22.945312 -36.796875 22.6875 -34.578125 C 22.4375 -32.367188 22.3125 -30.207031 22.3125 -28.09375 C 22.3125 -25.882812 22.375 -23.617188 22.5 -21.296875 C 22.625 -18.984375 22.957031 -16.863281 23.5 -14.9375 C 24.039062 -13.007812 24.914062 -11.453125 26.125 -10.265625 C 27.332031 -9.078125 29.019531 -8.484375 31.1875 -8.484375 C 32.726562 -8.484375 33.945312 -8.90625 34.84375 -9.75 C 35.75 -10.601562 36.429688 -11.6875 36.890625 -13 C 37.359375 -14.3125 37.65625 -15.648438 37.78125 -17.015625 C 37.90625 -18.378906 37.96875 -19.601562 37.96875 -20.6875 L 37.96875 -35.734375 C 37.96875 -36.710938 37.90625 -37.84375 37.78125 -39.125 C 37.65625 -40.414062 37.398438 -41.664062 37.015625 -42.875 C 36.628906 -44.082031 36.0625 -45.082031 35.3125 -45.875 C 34.5625 -46.675781 33.597656 -47.078125 32.421875 -47.078125 Z M 32.421875 -47.078125 "/></g></g><g style="fill:#ffb800;fill-opacity:1;"><g transform="translate(280.099758, 111.86005)"><path style="stroke:none" d="M 2.84375 -54.078125 C 2.84375 -57.296875 3.644531 -60.085938 5.25 -62.453125 C 6.863281 -64.816406 9.015625 -66.789062 11.703125 -68.375 C 14.398438 -69.957031 17.378906 -71.140625 20.640625 -71.921875 C 23.910156 -72.703125 27.179688 -73.09375 30.453125 -73.09375 C 34.234375 -73.09375 37.753906 -72.582031 41.015625 -71.5625 C 44.285156 -70.550781 47.160156 -69.0625 49.640625 -67.09375 C 52.128906 -65.132812 54.070312 -62.722656 55.46875 -59.859375 C 56.863281 -56.992188 57.5625 -53.695312 57.5625 -49.96875 C 57.5625 -45.84375 56.863281 -42.335938 55.46875 -39.453125 C 54.070312 -36.566406 52.1875 -34.164062 49.8125 -32.25 C 47.445312 -30.332031 44.785156 -28.75 41.828125 -27.5 C 38.878906 -26.25 35.832031 -25.1875 32.6875 -24.3125 C 29.539062 -23.4375 26.488281 -22.609375 23.53125 -21.828125 C 20.570312 -21.046875 17.910156 -20.179688 15.546875 -19.234375 C 13.179688 -18.285156 11.300781 -17.085938 9.90625 -15.640625 C 8.507812 -14.203125 7.8125 -12.375 7.8125 -10.15625 C 7.8125 -8.875 8.140625 -7.734375 8.796875 -6.734375 C 9.460938 -5.742188 10.484375 -5.25 11.859375 -5.25 C 13.609375 -5.25 15.25 -5.675781 16.78125 -6.53125 C 18.320312 -7.382812 19.847656 -8.472656 21.359375 -9.796875 C 22.867188 -11.117188 24.453125 -12.515625 26.109375 -13.984375 C 27.765625 -15.453125 29.550781 -16.847656 31.46875 -18.171875 C 33.382812 -19.492188 35.535156 -20.578125 37.921875 -21.421875 C 40.316406 -22.273438 43.03125 -22.703125 46.0625 -22.703125 C 48.1875 -22.703125 50.078125 -22.285156 51.734375 -21.453125 C 53.390625 -20.628906 54.691406 -19.578125 55.640625 -18.296875 C 56.585938 -17.023438 57.0625 -15.679688 57.0625 -14.265625 C 57.0625 -13.742188 56.867188 -12.953125 56.484375 -11.890625 C 56.109375 -10.828125 55.660156 -9.710938 55.140625 -8.546875 C 54.617188 -7.390625 54.171875 -6.382812 53.796875 -5.53125 C 53.035156 -3.875 52.476562 -2.535156 52.125 -1.515625 C 51.769531 -0.503906 51.285156 0 50.671875 0 C 50.242188 0 49.851562 -0.242188 49.5 -0.734375 C 49.144531 -1.234375 48.679688 -1.828125 48.109375 -2.515625 C 47.546875 -3.203125 46.71875 -3.789062 45.625 -4.28125 C 44.539062 -4.78125 43.03125 -5.03125 41.09375 -5.03125 C 39.101562 -5.03125 37.195312 -4.78125 35.375 -4.28125 C 33.550781 -3.789062 31.71875 -3.203125 29.875 -2.515625 C 28.03125 -1.828125 26.078125 -1.234375 24.015625 -0.734375 C 21.960938 -0.242188 19.707031 0 17.25 0 C 14.3125 0 11.8125 -0.566406 9.75 -1.703125 C 7.695312 -2.835938 6.140625 -4.382812 5.078125 -6.34375 C 4.015625 -8.3125 3.484375 -10.523438 3.484375 -12.984375 C 3.484375 -15.773438 4.109375 -18.34375 5.359375 -20.6875 C 6.609375 -23.03125 8.285156 -25.191406 10.390625 -27.171875 C 12.503906 -29.160156 14.875 -31.039062 17.5 -32.8125 C 20.125 -34.59375 22.84375 -36.285156 25.65625 -37.890625 C 28.46875 -39.503906 31.1875 -41.125 33.8125 -42.75 C 36.4375 -44.382812 38.800781 -46.066406 40.90625 -47.796875 C 43.019531 -49.523438 44.703125 -51.359375 45.953125 -53.296875 C 47.203125 -55.234375 47.828125 -57.335938 47.828125 -59.609375 C 47.828125 -61.691406 47.203125 -63.453125 45.953125 -64.890625 C 44.703125 -66.335938 43.007812 -67.441406 40.875 -68.203125 C 38.75 -68.960938 36.359375 -69.34375 33.703125 -69.34375 C 31.054688 -69.34375 28.609375 -68.820312 26.359375 -67.78125 C 24.117188 -66.738281 22.332031 -65.28125 21 -63.40625 C 19.675781 -61.539062 19.015625 -59.332031 19.015625 -56.78125 C 19.015625 -55.351562 19.394531 -54.023438 20.15625 -52.796875 C 20.914062 -51.566406 21.875 -50.582031 23.03125 -49.84375 C 24.1875 -49.113281 25.359375 -48.75 26.546875 -48.75 C 27.109375 -47.570312 27.046875 -46.285156 26.359375 -44.890625 C 25.671875 -43.492188 24.5 -42.296875 22.84375 -41.296875 C 21.195312 -40.304688 19.1875 -39.8125 16.8125 -39.8125 C 14.257812 -39.8125 11.914062 -40.460938 9.78125 -41.765625 C 7.65625 -43.066406 5.96875 -44.789062 4.71875 -46.9375 C 3.46875 -49.09375 2.84375 -51.472656 2.84375 -54.078125 Z M 2.84375 -54.078125 "/></g></g><g style="fill:#ffb800;fill-opacity:1;"><g transform="translate(341.195586, 111.86005)"><path style="stroke:none" d="M 10.078125 -14.328125 C 7.898438 -14.328125 6.03125 -14.90625 4.46875 -16.0625 C 2.90625 -17.226562 2.125 -18.925781 2.125 -21.15625 C 2.125 -23.613281 2.453125 -25.941406 3.109375 -28.140625 C 3.773438 -30.335938 4.59375 -32.523438 5.5625 -34.703125 C 6.539062 -36.878906 7.515625 -39.195312 8.484375 -41.65625 C 9.453125 -44.113281 10.265625 -46.820312 10.921875 -49.78125 C 11.585938 -52.738281 11.921875 -56.109375 11.921875 -59.890625 C 11.921875 -62.679688 11.539062 -64.867188 10.78125 -66.453125 C 10.03125 -68.046875 9.085938 -69.550781 7.953125 -70.96875 L 28.171875 -70.96875 C 29.878906 -70.96875 31.226562 -70.539062 32.21875 -69.6875 C 33.207031 -68.832031 33.914062 -67.753906 34.34375 -66.453125 C 34.769531 -65.160156 34.984375 -63.851562 34.984375 -62.53125 C 34.984375 -59.445312 34.304688 -56.5 32.953125 -53.6875 C 31.609375 -50.875 29.875 -48.203125 27.75 -45.671875 C 25.625 -43.140625 23.351562 -40.738281 20.9375 -38.46875 C 18.519531 -36.195312 16.242188 -34.066406 14.109375 -32.078125 C 11.984375 -30.085938 10.25 -28.226562 8.90625 -26.5 C 7.5625 -24.78125 6.890625 -23.1875 6.890625 -21.71875 C 6.890625 -20.675781 7.179688 -19.878906 7.765625 -19.328125 C 8.359375 -18.785156 9.082031 -18.410156 9.9375 -18.203125 C 10.789062 -17.992188 11.59375 -17.890625 12.34375 -17.890625 L 32.4375 -17.890625 L 32.4375 -34 C 32.4375 -36.03125 32.257812 -37.695312 31.90625 -39 C 31.550781 -40.300781 30.898438 -41.425781 29.953125 -42.375 L 53.71875 -42.375 C 52.769531 -41.425781 52.117188 -40.300781 51.765625 -39 C 51.410156 -37.695312 51.234375 -36.03125 51.234375 -34 L 51.234375 -17.890625 L 57.34375 -17.890625 L 57.34375 -14.328125 L 51.234375 -14.328125 L 51.234375 -8.375 C 51.234375 -6.34375 51.410156 -4.675781 51.765625 -3.375 C 52.117188 -2.070312 52.769531 -0.945312 53.71875 0 L 29.953125 0 C 30.898438 -0.945312 31.550781 -2.070312 31.90625 -3.375 C 32.257812 -4.675781 32.4375 -6.34375 32.4375 -8.375 L 32.4375 -14.328125 Z M 10.078125 -14.328125 "/></g></g><g clip-rule="nonzero" clip-path="url(#c66abb69b8)"><path style=" stroke:none;fill-rule:nonzero;fill:#ffffef;fill-opacity:1;" d="M 419.863281 59.484375 C 420.5 93.011719 421.003906 94.015625 437.652344 95.292969 C 421.003906 96.546875 420.480469 97.570312 419.863281 131.097656 C 419.226562 97.570312 418.722656 96.566406 402.074219 95.292969 C 418.722656 94.015625 419.246094 93.011719 419.863281 59.484375 Z M 419.863281 59.484375 "/></g><g style="fill:#ffffef;fill-opacity:1;"><g transform="translate(433.610926, 113.357873)"><path style="stroke:none" d="M 0 -54.03125 C 1.539062 -54.03125 3.265625 -54.566406 5.171875 -55.640625 C 7.078125 -56.722656 9.003906 -58.078125 10.953125 -59.703125 C 12.910156 -61.328125 14.765625 -62.9375 16.515625 -64.53125 C 18.265625 -66.125 19.804688 -67.457031 21.140625 -68.53125 C 22.484375 -69.613281 23.460938 -70.15625 24.078125 -70.15625 C 25.054688 -70.15625 25.546875 -69.539062 25.546875 -68.3125 L 25.546875 -54.03125 L 32.1875 -54.03125 L 32.1875 -50.171875 L 25.546875 -50.171875 L 25.546875 -18.984375 C 25.546875 -16.984375 25.570312 -14.976562 25.625 -12.96875 C 25.675781 -10.957031 25.957031 -9.15625 26.46875 -7.5625 C 26.988281 -5.96875 27.914062 -4.734375 29.25 -3.859375 C 29.5625 -3.648438 29.882812 -3.546875 30.21875 -3.546875 C 30.550781 -3.546875 30.898438 -3.492188 31.265625 -3.390625 C 31.160156 -2.460938 30.65625 -1.648438 29.75 -0.953125 C 28.851562 -0.265625 27.785156 0.253906 26.546875 0.609375 C 25.316406 0.972656 24.082031 1.15625 22.84375 1.15625 C 19.144531 1.15625 16.175781 0.539062 13.9375 -0.6875 C 11.695312 -1.925781 9.992188 -3.585938 8.828125 -5.671875 C 7.671875 -7.753906 6.898438 -10.082031 6.515625 -12.65625 C 6.128906 -15.226562 5.9375 -17.828125 5.9375 -20.453125 L 5.9375 -45.234375 C 5.9375 -46.003906 5.898438 -46.773438 5.828125 -47.546875 C 5.753906 -48.316406 5.472656 -48.945312 4.984375 -49.4375 C 4.492188 -49.925781 3.628906 -50.171875 2.390625 -50.171875 L 0 -50.171875 Z M 0 -54.03125 "/></g></g><g style="fill:#ffffef;fill-opacity:1;"><g transform="translate(466.568685, 113.357873)"><path style="stroke:none" d="M 1.9375 -25.546875 C 1.9375 -31.210938 2.988281 -36.269531 5.09375 -40.71875 C 7.207031 -45.164062 10.320312 -48.6875 14.4375 -51.28125 C 18.550781 -53.882812 23.617188 -55.1875 29.640625 -55.1875 C 34.222656 -55.1875 38.117188 -54.207031 41.328125 -52.25 C 44.546875 -50.300781 46.988281 -47.753906 48.65625 -44.609375 C 50.332031 -41.472656 51.171875 -38.128906 51.171875 -34.578125 C 51.171875 -32.003906 50.566406 -30.007812 49.359375 -28.59375 C 48.148438 -27.175781 46.503906 -26.171875 44.421875 -25.578125 C 42.335938 -24.992188 39.984375 -24.648438 37.359375 -24.546875 C 34.734375 -24.441406 31.992188 -24.453125 29.140625 -24.578125 C 26.285156 -24.710938 23.492188 -24.78125 20.765625 -24.78125 C 20.398438 -24.78125 20.007812 -24.738281 19.59375 -24.65625 C 19.1875 -24.582031 18.984375 -24.210938 18.984375 -23.546875 C 18.984375 -22.867188 19.664062 -21.9375 21.03125 -20.75 C 22.394531 -19.570312 24.15625 -18.363281 26.3125 -17.125 C 28.476562 -15.894531 30.796875 -14.867188 33.265625 -14.046875 C 35.734375 -13.222656 38.078125 -12.8125 40.296875 -12.8125 C 42.148438 -12.8125 43.640625 -13.015625 44.765625 -13.421875 C 45.898438 -13.835938 46.800781 -14.300781 47.46875 -14.8125 C 48.132812 -15.332031 48.6875 -15.796875 49.125 -16.203125 C 49.5625 -16.617188 49.960938 -16.828125 50.328125 -16.828125 C 50.585938 -16.828125 50.859375 -16.722656 51.140625 -16.515625 C 51.421875 -16.304688 51.5625 -15.867188 51.5625 -15.203125 C 51.5625 -13.765625 51.132812 -12.101562 50.28125 -10.21875 C 49.4375 -8.34375 48.148438 -6.539062 46.421875 -4.8125 C 44.703125 -3.09375 42.488281 -1.664062 39.78125 -0.53125 C 37.082031 0.59375 33.882812 1.15625 30.1875 1.15625 C 26.476562 1.15625 22.925781 0.488281 19.53125 -0.84375 C 16.132812 -2.1875 13.125 -4.066406 10.5 -6.484375 C 7.875 -8.898438 5.789062 -11.726562 4.25 -14.96875 C 2.707031 -18.21875 1.9375 -21.742188 1.9375 -25.546875 Z M 10.578125 -39.671875 C 10.578125 -37.867188 10.867188 -36.101562 11.453125 -34.375 C 12.046875 -32.65625 13 -31.242188 14.3125 -30.140625 C 15.625 -29.035156 17.3125 -28.484375 19.375 -28.484375 C 21.175781 -28.484375 23.003906 -28.546875 24.859375 -28.671875 C 26.710938 -28.804688 28.421875 -29.066406 29.984375 -29.453125 C 31.554688 -29.835938 32.816406 -30.414062 33.765625 -31.1875 C 34.722656 -31.957031 35.203125 -32.984375 35.203125 -34.265625 C 35.203125 -36.273438 34.695312 -38.050781 33.6875 -39.59375 C 32.6875 -41.132812 31.375 -42.445312 29.75 -43.53125 C 28.132812 -44.613281 26.425781 -45.425781 24.625 -45.96875 C 22.820312 -46.507812 21.097656 -46.78125 19.453125 -46.78125 C 18.015625 -46.78125 16.613281 -46.492188 15.25 -45.921875 C 13.882812 -45.359375 12.765625 -44.546875 11.890625 -43.484375 C 11.015625 -42.429688 10.578125 -41.160156 10.578125 -39.671875 Z M 10.578125 -39.671875 "/></g></g><g style="fill:#ffffef;fill-opacity:1;"><g transform="translate(519.671577, 113.357873)"><path style="stroke:none" d="M 1.9375 -25.546875 C 1.9375 -29.554688 2.515625 -33.347656 3.671875 -36.921875 C 4.828125 -40.503906 6.570312 -43.660156 8.90625 -46.390625 C 11.25 -49.117188 14.195312 -51.265625 17.75 -52.828125 C 21.300781 -54.398438 25.492188 -55.1875 30.328125 -55.1875 C 32.441406 -55.1875 34.578125 -54.878906 36.734375 -54.265625 C 38.898438 -53.648438 40.882812 -52.851562 42.6875 -51.875 C 44.488281 -50.894531 45.953125 -49.863281 47.078125 -48.78125 C 48.210938 -47.695312 48.78125 -46.691406 48.78125 -45.765625 C 48.78125 -45.097656 48.445312 -44.363281 47.78125 -43.5625 C 47.113281 -42.769531 46.289062 -41.945312 45.3125 -41.09375 C 44.332031 -40.25 43.378906 -39.414062 42.453125 -38.59375 C 41.367188 -37.664062 40.234375 -36.660156 39.046875 -35.578125 C 37.867188 -34.503906 36.816406 -33.59375 35.890625 -32.84375 C 34.960938 -32.09375 34.296875 -31.71875 33.890625 -31.71875 C 33.265625 -31.71875 32.863281 -32 32.6875 -32.5625 C 32.507812 -33.132812 32.273438 -33.910156 31.984375 -34.890625 C 31.703125 -35.867188 31.125 -36.972656 30.25 -38.203125 C 28.65625 -40.472656 26.703125 -42.441406 24.390625 -44.109375 C 22.078125 -45.785156 19.660156 -46.625 17.140625 -46.625 C 14.921875 -46.625 13.21875 -45.863281 12.03125 -44.34375 C 10.851562 -42.820312 10.265625 -40.90625 10.265625 -38.59375 C 10.265625 -36.070312 10.929688 -33.578125 12.265625 -31.109375 C 13.609375 -28.640625 15.375 -26.296875 17.5625 -24.078125 C 19.75 -21.867188 22.164062 -19.925781 24.8125 -18.25 C 27.46875 -16.582031 30.144531 -15.257812 32.84375 -14.28125 C 35.539062 -13.300781 38.023438 -12.8125 40.296875 -12.8125 C 42.148438 -12.8125 43.640625 -13.015625 44.765625 -13.421875 C 45.898438 -13.835938 46.800781 -14.300781 47.46875 -14.8125 C 48.132812 -15.332031 48.6875 -15.796875 49.125 -16.203125 C 49.5625 -16.617188 49.960938 -16.828125 50.328125 -16.828125 C 50.585938 -16.828125 50.859375 -16.722656 51.140625 -16.515625 C 51.421875 -16.304688 51.5625 -15.867188 51.5625 -15.203125 C 51.5625 -13.765625 51.132812 -12.101562 50.28125 -10.21875 C 49.4375 -8.34375 48.148438 -6.539062 46.421875 -4.8125 C 44.703125 -3.09375 42.488281 -1.664062 39.78125 -0.53125 C 37.082031 0.59375 33.882812 1.15625 30.1875 1.15625 C 26.476562 1.15625 22.925781 0.488281 19.53125 -0.84375 C 16.132812 -2.1875 13.125 -4.066406 10.5 -6.484375 C 7.875 -8.898438 5.789062 -11.726562 4.25 -14.96875 C 2.707031 -18.21875 1.9375 -21.742188 1.9375 -25.546875 Z M 1.9375 -25.546875 "/></g></g><g style="fill:#ffffef;fill-opacity:1;"><g transform="translate(572.774469, 113.357873)"><path style="stroke:none" d="M 0.390625 -67.84375 C 0.285156 -67.894531 0.0664062 -67.972656 -0.265625 -68.078125 C -0.597656 -68.179688 -0.765625 -68.460938 -0.765625 -68.921875 C -0.765625 -69.335938 -0.632812 -69.597656 -0.375 -69.703125 C -0.125 -69.804688 0.0234375 -69.882812 0.078125 -69.9375 C 0.691406 -70.238281 1.679688 -70.710938 3.046875 -71.359375 C 4.410156 -72.003906 5.96875 -72.722656 7.71875 -73.515625 C 9.46875 -74.316406 11.253906 -75.078125 13.078125 -75.796875 C 14.910156 -76.515625 16.597656 -77.117188 18.140625 -77.609375 C 19.679688 -78.097656 20.914062 -78.34375 21.84375 -78.34375 C 22.976562 -78.34375 23.644531 -78.035156 23.84375 -77.421875 C 24.050781 -76.804688 24.15625 -76.109375 24.15625 -75.328125 L 24.15625 -44.453125 C 24.257812 -44.453125 24.363281 -44.453125 24.46875 -44.453125 C 24.570312 -44.453125 24.648438 -44.453125 24.703125 -44.453125 C 25.316406 -44.453125 25.921875 -44.8125 26.515625 -45.53125 C 27.109375 -46.257812 27.800781 -47.160156 28.59375 -48.234375 C 29.394531 -49.316406 30.375 -50.382812 31.53125 -51.4375 C 32.6875 -52.5 34.148438 -53.390625 35.921875 -54.109375 C 37.703125 -54.828125 39.90625 -55.1875 42.53125 -55.1875 C 45.363281 -55.1875 47.640625 -54.632812 49.359375 -53.53125 C 51.085938 -52.425781 52.410156 -50.957031 53.328125 -49.125 C 54.253906 -47.300781 54.882812 -45.332031 55.21875 -43.21875 C 55.5625 -41.113281 55.734375 -39.054688 55.734375 -37.046875 L 55.8125 -22.3125 L 55.8125 -9.109375 C 55.8125 -6.898438 56.003906 -5.085938 56.390625 -3.671875 C 56.773438 -2.253906 57.484375 -1.03125 58.515625 0 L 32.65625 0 C 33.675781 -1.03125 34.378906 -2.253906 34.765625 -3.671875 C 35.160156 -5.085938 35.359375 -6.898438 35.359375 -9.109375 L 35.359375 -34.1875 C 35.359375 -35.988281 35.046875 -37.582031 34.421875 -38.96875 C 33.804688 -40.363281 32.648438 -41.0625 30.953125 -41.0625 C 29.765625 -41.0625 28.65625 -40.738281 27.625 -40.09375 C 26.601562 -39.457031 25.769531 -38.351562 25.125 -36.78125 C 24.476562 -35.207031 24.15625 -32.984375 24.15625 -30.109375 L 24.15625 -9.109375 C 24.15625 -6.898438 24.347656 -5.085938 24.734375 -3.671875 C 25.117188 -2.253906 25.828125 -1.03125 26.859375 0 L 1 0 C 2.03125 -1.03125 2.738281 -2.253906 3.125 -3.671875 C 3.507812 -5.085938 3.703125 -6.898438 3.703125 -9.109375 L 3.703125 -61.90625 C 3.703125 -62.21875 3.6875 -62.785156 3.65625 -63.609375 C 3.632812 -64.429688 3.390625 -65.265625 2.921875 -66.109375 C 2.460938 -66.960938 1.617188 -67.539062 0.390625 -67.84375 Z M 0.390625 -67.84375 "/></g></g></g></svg>